<svg width="41" height="18" viewBox="0 0 41 18" fill="none" xmlns="http://www.w3.org/2000/svg">
<g clip-path="url(#clip0_1916_514)">
<mask id="mask0_1916_514" style="mask-type:luminance" maskUnits="userSpaceOnUse" x="0" y="0" width="41" height="18">
<path d="M41 0.605469H0V17.6567H41V0.605469Z" fill="white"/>
</mask>
<g mask="url(#mask0_1916_514)">
<path d="M39.7849 10.7227H15.5693V17.6564H39.7849V10.7227Z" fill="#9E9E9E" fill-opacity="0.16"/>
<path d="M20.1283 14.6873H18.1216C18.1406 14.9368 18.2352 15.1382 18.409 15.2914C18.5828 15.4445 18.8014 15.522 19.0664 15.522C19.2161 15.522 19.3521 15.4962 19.4777 15.4428C19.6016 15.3895 19.7101 15.312 19.8013 15.2088L19.9837 15.4187C19.877 15.5461 19.7445 15.6442 19.5844 15.7113C19.4244 15.7784 19.2488 15.8111 19.0578 15.8111C18.8117 15.8111 18.5932 15.7595 18.4039 15.6528C18.2146 15.5478 18.0648 15.4032 17.9599 15.2174C17.8532 15.0315 17.7998 14.8215 17.7998 14.5875C17.7998 14.3534 17.8514 14.1435 17.953 13.9576C18.0545 13.7718 18.1939 13.6272 18.3729 13.5239C18.5501 13.4207 18.7498 13.3691 18.9718 13.3691C19.1938 13.3691 19.3934 13.4207 19.5689 13.5239C19.7445 13.6272 19.8839 13.7718 19.9837 13.9542C20.0835 14.1383 20.1334 14.3483 20.1334 14.5858L20.1283 14.6873ZM18.3884 13.8681C18.2318 14.0161 18.1423 14.2072 18.1216 14.4446H19.8219C19.8013 14.2072 19.7118 14.0144 19.5552 13.8681C19.3986 13.7201 19.2041 13.6461 18.9683 13.6461C18.7377 13.6478 18.545 13.7201 18.3884 13.8681Z" fill="#9E9E9E"/>
<path d="M20.6611 14.4102H21.8555V14.6924H20.6611V14.4102Z" fill="#9E9E9E"/>
<path d="M22.7659 15.7003C22.5491 15.6246 22.3805 15.5248 22.2617 15.3991L22.3942 15.1393C22.5095 15.2546 22.6627 15.3475 22.8554 15.4198C23.0465 15.4921 23.2444 15.5265 23.4492 15.5265C23.7348 15.5265 23.95 15.4749 24.0928 15.3699C24.2356 15.2649 24.3079 15.1289 24.3079 14.962C24.3079 14.8347 24.2683 14.7331 24.1909 14.6557C24.1135 14.58 24.0188 14.5214 23.9052 14.4801C23.7934 14.4388 23.6367 14.3941 23.4354 14.3459C23.1945 14.2857 23.0034 14.2272 22.8606 14.1704C22.7178 14.1136 22.5956 14.0275 22.494 13.9122C22.3925 13.7969 22.3409 13.6403 22.3409 13.4424C22.3409 13.2806 22.3839 13.1344 22.4682 13.0018C22.5525 12.8693 22.6833 12.7644 22.8606 12.6852C23.0361 12.606 23.2564 12.5664 23.518 12.5664C23.7004 12.5664 23.8794 12.5923 24.0532 12.6422C24.2288 12.6921 24.3785 12.7609 24.5076 12.8504L24.394 13.1189C24.2597 13.0311 24.1169 12.964 23.9655 12.921C23.814 12.8779 23.6643 12.8556 23.518 12.8556C23.2375 12.8556 23.0275 12.9089 22.8864 13.0173C22.7453 13.1258 22.6747 13.2651 22.6747 13.4338C22.6747 13.5612 22.7143 13.6644 22.7918 13.7419C22.8692 13.8193 22.9673 13.8778 23.0843 13.9191C23.2013 13.9604 23.358 14.0052 23.5559 14.0533C23.7899 14.1119 23.9792 14.1686 24.1238 14.2237C24.2683 14.2805 24.3905 14.3648 24.4903 14.4784C24.5902 14.592 24.6401 14.7469 24.6401 14.9414C24.6401 15.1031 24.597 15.2494 24.511 15.3819C24.4249 15.5144 24.2907 15.6194 24.1117 15.6969C23.9328 15.7743 23.7125 15.8139 23.4509 15.8139C23.21 15.8139 22.9828 15.776 22.7659 15.7003Z" fill="#9E9E9E"/>
<path d="M27.3929 14.6873H25.3863C25.4052 14.9368 25.4999 15.1382 25.6737 15.2914C25.8475 15.4445 26.0661 15.522 26.3311 15.522C26.4808 15.522 26.6168 15.4962 26.7424 15.4428C26.8663 15.3895 26.9747 15.312 27.0659 15.2088L27.2484 15.4187C27.1417 15.5461 27.0091 15.6442 26.8491 15.7113C26.689 15.7784 26.5135 15.8111 26.3225 15.8111C26.0764 15.8111 25.8578 15.7595 25.6685 15.6528C25.4792 15.5478 25.3295 15.4032 25.2245 15.2174C25.1178 15.0315 25.0645 14.8215 25.0645 14.5875C25.0645 14.3534 25.1161 14.1435 25.2176 13.9576C25.3192 13.7718 25.4586 13.6272 25.6375 13.5239C25.8148 13.4207 26.0144 13.3691 26.2364 13.3691C26.4584 13.3691 26.6581 13.4207 26.8336 13.5239C27.0091 13.6272 27.1485 13.7718 27.2484 13.9542C27.3482 14.1383 27.3981 14.3483 27.3981 14.5858L27.3929 14.6873ZM25.653 13.8681C25.4964 14.0161 25.4069 14.2072 25.3863 14.4446H27.0866C27.0659 14.2072 26.9764 14.0144 26.8198 13.8681C26.6632 13.7201 26.4688 13.6461 26.233 13.6461C26.0041 13.6478 25.8096 13.7201 25.653 13.8681Z" fill="#9E9E9E"/>
<path d="M28.416 15.6545C28.2284 15.5512 28.0822 15.4067 27.9755 15.2191C27.8688 15.0315 27.8154 14.8215 27.8154 14.5875C27.8154 14.3534 27.8688 14.1435 27.9755 13.9576C28.0822 13.7718 28.2284 13.6272 28.416 13.5239C28.6036 13.4207 28.8153 13.3691 29.0528 13.3691C29.2593 13.3691 29.4434 13.4086 29.6069 13.4895C29.7687 13.5704 29.8978 13.6874 29.9924 13.8423L29.7515 14.0058C29.6723 13.8871 29.5725 13.7976 29.4503 13.7391C29.3281 13.6805 29.1956 13.6496 29.0528 13.6496C28.879 13.6496 28.7241 13.6891 28.5847 13.7666C28.447 13.844 28.3386 13.9542 28.2611 14.097C28.1837 14.2399 28.1441 14.4033 28.1441 14.584C28.1441 14.7699 28.1837 14.9334 28.2611 15.0745C28.3386 15.2156 28.447 15.3258 28.5847 15.4032C28.7224 15.4807 28.879 15.5202 29.0528 15.5202C29.1956 15.5202 29.3281 15.491 29.4503 15.4342C29.5725 15.3757 29.6723 15.2879 29.7515 15.1692L29.9924 15.3327C29.8978 15.4875 29.7687 15.6046 29.6052 15.6855C29.4417 15.7663 29.2576 15.8059 29.0528 15.8059C28.8153 15.8094 28.6019 15.7577 28.416 15.6545Z" fill="#9E9E9E"/>
<path d="M32.7881 13.3867V15.7857H32.4783V15.3486C32.394 15.4948 32.2769 15.6084 32.1272 15.6876C31.9775 15.7685 31.8088 15.808 31.6161 15.808C31.3029 15.808 31.0551 15.7203 30.8744 15.5465C30.6937 15.3709 30.6025 15.1162 30.6025 14.7789V13.3884H30.926V14.7479C30.926 15.0009 30.9879 15.1919 31.1136 15.3227C31.2375 15.4535 31.4165 15.5189 31.6471 15.5189C31.9 15.5189 32.098 15.4415 32.2442 15.2883C32.3905 15.1352 32.4628 14.9218 32.4628 14.6481V13.3901H32.7881V13.3867Z" fill="#9E9E9E"/>
<path d="M34.3451 13.493C34.4948 13.4104 34.6824 13.3691 34.9044 13.3691V13.684L34.827 13.6788C34.574 13.6788 34.3778 13.7563 34.2349 13.9112C34.0921 14.066 34.0198 14.2829 34.0198 14.5634V15.7853H33.6963V13.3863H34.0061V13.8561C34.0801 13.696 34.1936 13.5738 34.3451 13.493Z" fill="#9E9E9E"/>
<path d="M37.5531 14.6873H35.5464C35.5654 14.9368 35.66 15.1382 35.8338 15.2914C36.0076 15.4445 36.2262 15.522 36.4912 15.522C36.641 15.522 36.7769 15.4962 36.9025 15.4428C37.0264 15.3895 37.1349 15.312 37.2261 15.2088L37.4085 15.4187C37.3018 15.5461 37.1693 15.6442 37.0092 15.7113C36.8492 15.7784 36.6737 15.8111 36.4826 15.8111C36.2365 15.8111 36.018 15.7595 35.8287 15.6528C35.6394 15.5478 35.4896 15.4032 35.3847 15.2174C35.278 15.0315 35.2246 14.8215 35.2246 14.5875C35.2246 14.3534 35.2762 14.1435 35.3778 13.9576C35.4793 13.7718 35.6187 13.6272 35.7977 13.5239C35.9749 13.4207 36.1746 13.3691 36.3966 13.3691C36.6186 13.3691 36.8182 13.4207 36.9938 13.5239C37.1693 13.6272 37.3087 13.7718 37.4085 13.9542C37.5083 14.1383 37.5582 14.3483 37.5582 14.5858L37.5531 14.6873ZM35.8132 13.8681C35.6566 14.0161 35.5671 14.2072 35.5464 14.4446H37.2467C37.2261 14.2072 37.1366 14.0144 36.98 13.8681C36.8234 13.7201 36.6289 13.6461 36.3931 13.6461C36.1643 13.6478 35.9698 13.7201 35.8132 13.8681Z" fill="#9E9E9E"/>
<path d="M1.38709 4.11285H1.90337C2.16324 4.11285 2.49538 4.11285 2.78622 3.89429C3.03576 3.69638 3.15967 3.38489 3.15967 3.08372C3.15967 2.69995 2.97209 2.43836 2.7759 2.2938C2.49538 2.09589 2.14259 2.07524 1.81905 2.07524H1.38709V4.11285ZM2.01696 0.910156C2.79655 0.910156 3.33693 0.992762 3.84633 1.44021C4.40736 1.93928 4.55364 2.61562 4.55364 3.1147C4.55364 3.38489 4.51234 4.1335 3.98229 4.66355C3.59851 5.04733 3.02544 5.27621 2.22519 5.27621H1.38709V7.84388H0V0.910156H2.01696Z" fill="#9E9E9E"/>
<path d="M7.32557 4.10252H7.67493C7.93479 4.10252 9.00523 4.07155 9.00523 3.05274C9.00523 2.02361 7.94512 2.01329 7.69558 2.01329H7.32557V4.10252ZM7.94512 0.910156C8.90197 0.910156 9.39072 1.15969 9.71254 1.42988C10.2426 1.87733 10.3992 2.46934 10.3992 2.98907C10.3992 3.6654 10.129 4.25741 9.58863 4.62053C9.41137 4.74616 9.16183 4.85974 8.82969 4.9217L10.9912 7.84216H9.30639L7.45637 5.07142H7.32557V7.84388H5.93848V0.910156H7.94512Z" fill="#9E9E9E"/>
<path d="M23.8121 2.49104C23.406 1.95067 22.9293 1.89904 22.6798 1.89904C21.9518 1.89904 21.7229 2.35681 21.7229 2.70961C21.7229 2.87654 21.7745 3.03142 21.9415 3.17771C22.1084 3.33259 22.3373 3.41692 22.7727 3.57352C23.3131 3.76111 23.8225 3.94697 24.1753 4.27051C24.4868 4.55103 24.7673 5.01913 24.7673 5.72644C24.7673 7.07739 23.7898 8.00326 22.3562 8.00326C21.0775 8.00326 20.3289 7.22367 19.9658 6.69361L20.8487 5.85207C21.1808 6.5284 21.8158 6.77794 22.3046 6.77794C22.9172 6.77794 23.375 6.40449 23.375 5.82109C23.375 5.57155 23.2924 5.37364 23.1048 5.1981C22.845 4.95889 22.4285 4.82466 22.0344 4.6887C21.6713 4.56307 21.2342 4.39786 20.8796 4.08637C20.6507 3.88846 20.3289 3.50469 20.3289 2.79737C20.3289 1.77857 21.0156 0.759766 22.5541 0.759766C22.9912 0.759766 23.8121 0.842372 24.5195 1.57033L23.8121 2.49104Z" fill="#9E9E9E"/>
<path d="M29.0618 2.13031V7.84388H27.6747V2.12515H26.1396V0.910156H30.609V2.13031H29.0618Z" fill="#9E9E9E"/>
<path d="M33.3656 0.910156H31.9785V7.84388H33.3656V0.910156Z" fill="#9E9E9E"/>
<path d="M36.119 4.10252H36.4683C36.7282 4.10252 37.7986 4.07155 37.7986 3.05274C37.7986 2.02361 36.7385 2.01329 36.489 2.01329H36.119V4.10252ZM36.7403 0.910156C37.6971 0.910156 38.1842 1.15969 38.5078 1.42988C39.0378 1.87733 39.1944 2.46934 39.1944 2.98907C39.1944 3.6654 38.9241 4.25741 38.3839 4.62053C38.2066 4.74616 37.9571 4.85974 37.6249 4.9217L39.7864 7.84216H38.1032L36.2533 5.05593H36.1224V7.84216H34.7354V0.910156H36.7403Z" fill="#9E9E9E"/>
<path d="M14.8645 4.38603V4.37743C14.8645 3.99021 15.1777 3.677 15.5649 3.677C15.9521 3.677 16.2654 3.99021 16.2654 4.37743C16.2654 4.76292 15.9539 5.07613 15.5684 5.07785V6.02438C16.4753 6.02266 17.2119 5.28609 17.2119 4.37743C17.2119 3.46704 16.4736 2.73047 15.5649 2.73047C14.6545 2.73047 13.918 3.46704 13.918 4.37743V4.38603H14.8645Z" fill="#9E9E9E"/>
<path d="M17.9931 3.1869C18.1687 3.54658 18.2685 3.951 18.2685 4.3778C18.2685 5.87331 17.0569 7.08486 15.5614 7.08486C14.0659 7.08486 12.8543 5.87159 12.8543 4.3778C12.8543 2.93564 13.9816 1.75851 15.4014 1.6759L16.076 0.641609C15.9073 0.619236 15.7352 0.605469 15.5614 0.605469C13.4773 0.605469 11.7891 2.29372 11.7891 4.3778C11.7891 6.46187 13.4773 8.15013 15.5614 8.15013C17.6455 8.15013 19.3337 6.46187 19.3337 4.3778C19.3337 3.56551 19.0756 2.81345 18.6385 2.19735L17.9931 3.1869Z" fill="#9E9E9E"/>
<path d="M40.9994 1.46482C40.9994 1.54743 40.9839 1.62487 40.953 1.69543C40.922 1.76771 40.8807 1.82966 40.8273 1.88301C40.774 1.93636 40.712 1.97939 40.6398 2.01036C40.5675 2.04134 40.49 2.05683 40.4091 2.05683C40.3558 2.05683 40.3024 2.04995 40.2525 2.03618C40.2026 2.02241 40.1544 2.00176 40.1097 1.97594C40.065 1.95013 40.0254 1.91915 39.9892 1.88301C39.9531 1.84687 39.9221 1.80729 39.8963 1.76255C39.8705 1.7178 39.8498 1.67134 39.8361 1.62143C39.8223 1.57152 39.8154 1.51817 39.8154 1.4631C39.8154 1.38049 39.8309 1.30477 39.8619 1.23249C39.8929 1.16021 39.9359 1.09826 39.9892 1.04491C40.0426 0.991561 40.1063 0.948537 40.1785 0.91756C40.2508 0.886583 40.3283 0.871094 40.4091 0.871094C40.49 0.871094 40.5675 0.886583 40.6398 0.91756C40.712 0.948537 40.7757 0.991561 40.8273 1.04491C40.8807 1.09826 40.922 1.16193 40.953 1.23249C40.9839 1.30649 40.9994 1.38394 40.9994 1.46482ZM40.9323 1.46482C40.9323 1.39254 40.9185 1.32542 40.891 1.26175C40.8635 1.19807 40.8256 1.143 40.7792 1.09654C40.731 1.05007 40.6759 1.01221 40.6122 0.984677C40.5485 0.957142 40.4814 0.943374 40.4091 0.943374C40.3369 0.943374 40.268 0.957142 40.2044 0.984677C40.1407 1.01221 40.0856 1.04835 40.0374 1.09654C39.991 1.143 39.9531 1.19807 39.9256 1.26175C39.898 1.32542 39.8843 1.39254 39.8843 1.46482C39.8843 1.5371 39.898 1.60594 39.9256 1.66962C39.9531 1.73329 39.9892 1.78836 40.0374 1.83655C40.0839 1.88473 40.1407 1.92087 40.2044 1.94841C40.268 1.97594 40.3369 1.98971 40.4091 1.98971C40.4814 1.98971 40.5485 1.97594 40.6122 1.94841C40.6759 1.92087 40.731 1.88301 40.7792 1.83655C40.8273 1.78836 40.8635 1.73329 40.891 1.66962C40.9185 1.60594 40.9323 1.53882 40.9323 1.46482ZM40.5847 1.80901L40.4143 1.5285H40.2629V1.80901H40.1803V1.12579H40.4229C40.4969 1.12579 40.5554 1.143 40.5967 1.1757C40.638 1.2084 40.6587 1.25659 40.6587 1.31682C40.6587 1.37533 40.6432 1.42008 40.6139 1.4545C40.5847 1.48891 40.5451 1.50957 40.4969 1.51989L40.6811 1.81073H40.5847V1.80901ZM40.5744 1.31682C40.5744 1.27552 40.5606 1.24454 40.5331 1.22389C40.5055 1.20324 40.4677 1.19291 40.4178 1.19291H40.2646V1.45966H40.4298C40.4763 1.45966 40.5124 1.44761 40.5382 1.4218C40.5623 1.3977 40.5744 1.36156 40.5744 1.31682Z" fill="#9E9E9E"/>
</g>
</g>
<defs>
<clipPath id="clip0_1916_514">
<rect width="41" height="18" fill="white"/>
</clipPath>
</defs>
</svg>
