<svg width="52" height="20" viewBox="0 0 52 20" fill="none" xmlns="http://www.w3.org/2000/svg">
<g clip-path="url(#clip0_2683_270)">
<g clip-path="url(#clip1_2683_270)">
<mask id="mask0_2683_270" style="mask-type:luminance" maskUnits="userSpaceOnUse" x="0" y="0" width="52" height="20">
<path d="M0 0H52V20H0V0Z" fill="white"/>
</mask>
<g mask="url(#mask0_2683_270)">
<path fill-rule="evenodd" clip-rule="evenodd" d="M35.1501 1.24501L34.8841 2.98001C34.3061 2.67101 33.8761 2.55301 33.4171 2.55301C32.2021 2.55301 31.3421 3.78801 31.3421 5.53801C31.3421 6.74401 31.9201 7.47801 32.8691 7.47801C33.2691 7.47801 33.7131 7.34601 34.2621 7.06701L33.9801 8.89001C33.3721 9.06601 32.9871 9.12501 32.5281 9.12501C30.7641 9.12501 29.6681 7.80201 29.6681 5.68501C29.6681 2.83301 31.1791 0.833008 33.3581 0.833008C33.6391 0.833008 33.8911 0.863008 34.0981 0.921008L34.7801 1.09801C34.8961 1.14601 34.9551 1.16801 35.0231 1.19501L35.1501 1.24501ZM49.1551 8.02301C49.1551 7.46301 49.5991 7.00801 50.1331 7.00801C50.6811 7.00801 51.1111 7.46401 51.1111 8.02301C51.1111 8.58101 50.6811 9.03701 50.1331 9.03701C49.5991 9.05201 49.1551 8.59601 49.1551 8.02301ZM50.1331 8.81601C50.5481 8.81601 50.8741 8.46301 50.8741 8.03701C50.8741 7.61101 50.5341 7.25801 50.1331 7.25801C49.7181 7.25801 49.3921 7.61101 49.3921 8.03801C49.3921 8.46301 49.7181 8.81601 50.1331 8.81601ZM49.9991 8.47801H49.7921V7.58201H50.1621C50.2371 7.58201 50.3261 7.58201 50.3851 7.62601C50.4591 7.67001 50.4891 7.75801 50.4891 7.84601C50.4891 7.94901 50.4291 8.03701 50.3401 8.06601L50.5031 8.46301H50.2811L50.1481 8.11101H49.9991V8.47801ZM49.9991 7.97801H50.1191C50.1631 7.97801 50.2071 7.97801 50.2371 7.96401C50.2671 7.94901 50.2811 7.90401 50.2811 7.86101C50.2811 7.83101 50.2661 7.78701 50.2371 7.77301C50.2071 7.75801 50.1471 7.75801 50.1181 7.75801H50.0141L49.9991 7.97801ZM29.5501 2.42201C29.6101 2.42201 29.6691 2.42201 29.7131 2.43701L29.7731 2.45101C29.4911 2.98101 29.2981 3.55401 29.1501 4.33301H29.0311C28.2461 4.33301 28.0981 5.00901 27.5051 8.97901H25.8601L26.8681 2.49501H28.3501L28.2021 3.48001C28.7061 2.70101 29.0171 2.42201 29.5501 2.42201ZM19.9181 8.89201C19.4731 9.03801 19.1181 9.11201 18.7471 9.11201C17.9171 9.11201 17.4571 8.61201 17.4571 7.68601C17.4571 7.50901 17.4731 7.30301 17.5021 7.09801L17.6061 6.46501L17.6801 5.95101L18.3911 1.52501H20.0211L19.8291 2.48101H20.6741L20.4361 4.05401H19.6061L19.1761 6.75901L19.1651 6.85101C19.1551 6.92401 19.1471 6.98101 19.1471 7.02401C19.1471 7.36201 19.3251 7.50901 19.7101 7.50901C19.9031 7.50901 20.0361 7.49501 20.1551 7.45001L19.9181 8.89101V8.89201ZM14.7001 6.34601C13.8411 5.91901 13.4561 5.36101 13.4561 4.53701C13.4411 3.33201 14.0781 2.34701 15.9311 2.34701C16.3011 2.34701 16.9381 2.40601 17.3681 2.47901L17.1311 3.97901C16.7434 3.91933 16.3522 3.88492 15.9601 3.87601C15.4271 3.87601 15.1601 4.05201 15.1601 4.40601C15.1601 4.71401 15.2341 4.78701 15.9161 5.11101C16.7461 5.50801 17.0721 6.03701 17.0721 6.91901C17.0721 8.38901 16.2721 9.08001 14.5521 9.08001C14.3921 9.08001 14.1691 9.06301 13.8971 9.04001C13.8141 9.03353 13.7311 9.02719 13.6481 9.02101C13.5364 9.01193 13.4253 8.99758 13.3151 8.97801C13.2831 8.97261 13.2511 8.96761 13.2191 8.96301L12.9221 8.90401L12.8481 8.88901L13.0701 7.38901C13.6041 7.58101 14.0481 7.65401 14.5371 7.65401C15.1751 7.65401 15.4711 7.46301 15.4711 7.06601C15.4711 6.77201 15.3521 6.66901 14.7011 6.34601H14.7001ZM48.2061 8.96301H46.6501L46.7241 8.33101C46.2801 8.83101 45.8061 9.05101 45.2131 9.05101C44.0131 9.05101 43.2271 7.97801 43.2271 6.36101C43.2271 4.19901 44.4431 2.37701 45.8951 2.37701C46.5321 2.37701 47.0061 2.65601 47.4651 3.25801L47.8211 0.980008H49.4371L48.2061 8.96301ZM45.7911 7.45001C46.5611 7.45001 47.0951 6.55301 47.0951 5.25901C47.0951 4.43601 46.7841 3.97901 46.2211 3.97901C45.4801 3.97901 44.9461 4.89201 44.9461 6.15601C44.9461 7.00801 45.2281 7.45001 45.7911 7.45001ZM23.4141 9.09601C24.0071 9.09601 24.5401 9.00801 25.1041 8.83101L25.3551 7.22901C24.7631 7.50901 24.2291 7.64101 23.6511 7.64101C22.7031 7.64101 22.2141 7.25801 22.2141 6.49401C22.2141 6.43501 22.2141 6.39101 22.2291 6.28801H25.4891C25.6371 5.62601 25.6961 5.15601 25.6961 4.68501C25.6961 3.24501 24.8361 2.31901 23.4881 2.31901C21.8431 2.31901 20.6281 3.95001 20.6281 6.18501C20.6281 8.09601 21.5911 9.09601 23.4141 9.09601ZM24.2001 4.64001C24.2001 4.71401 24.2001 4.83101 24.1851 4.96401H22.3901C22.5391 4.21401 22.9101 3.80201 23.4281 3.80201C23.9171 3.80201 24.1981 4.11101 24.1981 4.64001H24.2001ZM6.87606 8.96401H5.24606L6.18006 2.83401L4.07506 8.96401H2.96406L2.83006 2.87701L1.83806 8.96401H0.310059L1.58606 0.996008H3.94206L4.00006 5.93601L5.60006 0.996008H8.15006L6.87606 8.96401ZM10.9411 6.06701L11.0991 6.08201C11.0691 7.03801 10.5811 7.69901 9.92906 7.69901C9.57306 7.69901 9.33606 7.43501 9.33606 7.03801C9.33606 6.39101 9.79606 6.05301 10.7291 6.05301C10.8051 6.05301 10.8631 6.05901 10.9411 6.06701ZM10.9211 8.96401H12.2851L12.3001 8.80201L12.3301 8.56601L12.3741 8.24301L12.4341 7.83201L12.7591 5.52301C12.8631 4.78801 12.8921 4.55301 12.8921 4.23001C12.8921 2.99501 12.1521 2.33301 10.7441 2.33301C10.1511 2.33301 9.60306 2.43601 8.78806 2.68601L8.56606 4.14101L8.71406 4.09701L8.92106 4.02401C9.29106 3.90601 9.82506 3.83301 10.2841 3.83301C11.0551 3.83301 11.3361 3.99401 11.3361 4.42101C11.3318 4.56472 11.312 4.70754 11.2771 4.84701C11.0561 4.81913 10.8337 4.80443 10.6111 4.80301C8.80206 4.80301 7.73606 5.71401 7.73606 7.30301C7.73606 8.34601 8.34306 9.06701 9.23206 9.06701C9.98806 9.06701 10.5361 8.83101 10.9521 8.28701L10.9221 8.96401H10.9211ZM37.9811 6.08201L37.8511 6.06901C37.7714 6.05927 37.6913 6.05392 37.6111 6.05301C36.6771 6.05301 36.2031 6.39101 36.2031 7.03801C36.2031 7.43501 36.4401 7.69901 36.7961 7.69901C37.4621 7.69901 37.9521 7.03801 37.9811 6.08201ZM39.1671 8.96401H37.8031L37.8331 8.28701C37.4181 8.83101 36.8701 9.06701 36.1141 9.06701C35.2241 9.06701 34.6171 8.34701 34.6171 7.30201C34.6171 5.71401 35.6841 4.80301 37.4921 4.80301C37.6701 4.80301 37.9221 4.81801 38.1591 4.84701C38.1943 4.70758 38.2144 4.56475 38.2191 4.42101C38.2191 3.99401 37.9371 3.83301 37.1661 3.83301C36.7061 3.83301 36.1731 3.90601 35.8031 4.02301L35.5661 4.08301L35.4171 4.12701L35.6401 2.67101C36.4551 2.42101 37.0031 2.31901 37.5961 2.31901C39.0041 2.31901 39.7451 2.98001 39.7451 4.21501C39.7451 4.53801 39.7151 4.77401 39.6111 5.50901L39.2711 7.80201L39.2261 8.21401L39.1821 8.53701L39.1521 8.75701L39.1671 8.96401ZM43.5831 2.42101C43.6431 2.42101 43.7011 2.42101 43.7461 2.43601L43.8061 2.45001C43.5082 3.04381 43.2984 3.67778 43.1831 4.33201H43.0641C42.2791 4.33201 42.1301 5.00801 41.5381 8.97801H39.8931L40.9011 2.49401H42.3831L42.2341 3.47901C42.7381 2.70001 43.0491 2.42101 43.5831 2.42101Z" fill="#FD0C15"/>
<path fill-rule="evenodd" clip-rule="evenodd" d="M3.483 12.3439C4.046 12.3439 4.46 12.5059 4.757 12.7119L5.157 11.1089C4.772 10.8449 4.09 10.7419 3.379 10.7419C2.104 10.7419 0.785 11.3589 0.785 13.4619C0.785 14.7679 1.517 15.1719 2.145 15.5219C2.621 15.7839 3.038 16.0149 3.038 16.5779C3.038 17.4159 2.297 17.5479 1.808 17.5479C1.289 17.5479 0.682 17.3579 0.37 17.0779L0 18.7249C0.504 18.9599 1.2 19.1509 1.793 19.1509C3.142 19.1509 4.623 18.5629 4.623 16.3139C4.623 14.8439 3.827 14.3999 3.181 14.0399C2.741 13.7949 2.371 13.5879 2.371 13.1229C2.371 12.4769 2.86 12.3439 3.483 12.3439ZM33.506 12.9769L33.758 11.2419C33.6372 11.1743 33.5072 11.1248 33.372 11.0949L32.75 10.9179C32.5283 10.855 32.2984 10.8253 32.068 10.8299C30.038 10.8299 28.616 12.8299 28.616 15.6819C28.616 17.7989 29.653 19.1219 31.298 19.1219C31.728 19.1219 32.098 19.0629 32.661 18.8869L32.928 17.0639C32.424 17.3439 32.009 17.4749 31.624 17.4749C30.734 17.4749 30.201 16.7399 30.201 15.5349C30.201 13.7849 31.001 12.5499 32.143 12.5499C32.573 12.5499 32.958 12.6679 33.506 12.9769ZM35.684 17.6079C36.41 17.6079 36.87 16.7409 36.87 15.2709C36.87 14.5939 36.662 13.9619 36.055 13.9619C35.314 13.9619 34.839 15.1379 34.839 16.1669C34.839 17.0349 35.151 17.6229 35.684 17.6079ZM36.144 12.3739C37.67 12.3739 38.485 13.6539 38.485 15.2849C38.485 17.9899 37.255 19.1669 35.58 19.1669C33.92 19.1669 33.24 17.8289 33.24 16.1969C33.24 13.9179 34.38 12.3739 36.144 12.3739ZM23.636 12.4179C23.592 12.4039 23.533 12.4039 23.473 12.4039C22.97 12.4039 22.688 12.6839 22.213 13.4619L22.362 12.4769H20.984L20.05 18.9609H21.576C22.125 14.9909 22.273 14.3149 22.999 14.3149C23.044 14.3149 23.044 14.3149 23.118 14.3299C23.251 13.5499 23.444 12.9769 23.696 12.4479L23.636 12.4179ZM42.16 18.9019H43.612L44.768 10.9329H43.257L42.916 13.2129C42.501 12.5949 42.042 12.3149 41.449 12.3149C40.1 12.3149 38.959 14.1389 38.959 16.2999C38.959 17.9169 39.7 18.9899 40.812 18.9899C41.375 18.9899 41.819 18.7699 42.234 18.2699L42.16 18.9019ZM42.56 15.1819C42.56 16.4759 42.071 17.3719 41.345 17.3719C40.826 17.3719 40.56 16.9459 40.56 16.0939C40.56 14.8139 41.049 13.9179 41.745 13.9179C42.279 13.9179 42.56 14.3579 42.56 15.1819ZM9.292 18.8719C8.78696 19.048 8.25584 19.1376 7.721 19.1369C6.017 19.1369 5.127 18.1369 5.127 16.2269C5.127 14.0069 6.269 12.3599 7.795 12.3599C9.055 12.3599 9.855 13.2709 9.855 14.7269C9.855 15.1969 9.795 15.6669 9.662 16.3289H6.624C6.61309 16.3971 6.60807 16.466 6.609 16.5349C6.609 17.2849 7.069 17.6669 7.958 17.6669C8.506 17.6669 8.995 17.5349 9.543 17.2549L9.292 18.8719ZM8.44 14.7999C8.443 14.7549 8.446 14.7149 8.446 14.6839C8.446 14.1539 8.179 13.8459 7.72 13.8459C7.23 13.8459 6.89 14.2569 6.742 15.0069H8.432C8.432 14.9309 8.436 14.8609 8.44 14.7999ZM25.918 19.1379C26.466 19.1379 26.97 19.0499 27.488 18.8729L27.74 17.2569C27.192 17.5359 26.703 17.6679 26.155 17.6679C25.265 17.6679 24.806 17.2859 24.806 16.5359C24.806 16.4769 24.806 16.4329 24.821 16.3299H27.859C27.992 15.6689 28.052 15.1979 28.052 14.7279C28.052 13.2719 27.236 12.3609 25.977 12.3609C24.45 12.3609 23.309 14.0079 23.309 16.2269C23.309 18.1389 24.199 19.1379 25.918 19.1379ZM26.644 14.6839C26.644 14.7569 26.644 14.8739 26.629 15.0069H24.939C25.088 14.2569 25.429 13.8459 25.918 13.8459C26.377 13.8459 26.644 14.1539 26.644 14.6839ZM48.828 18.8739C48.3223 19.0472 47.7916 19.1364 47.257 19.1379C45.553 19.1379 44.649 18.1379 44.649 16.2279C44.649 14.0079 45.789 12.3609 47.331 12.3609C48.591 12.3609 49.391 13.2719 49.391 14.7279C49.391 15.1979 49.331 15.6679 49.198 16.3299H46.16C46.146 16.4329 46.146 16.4769 46.146 16.5359C46.146 17.2859 46.605 17.6679 47.494 17.6679C48.042 17.6679 48.532 17.5359 49.08 17.2559L48.828 18.8729V18.8739ZM47.978 14.7999C47.98 14.7549 47.983 14.7149 47.983 14.6839C47.983 14.1539 47.716 13.8459 47.257 13.8459C46.767 13.8459 46.427 14.2569 46.279 15.0069H47.969C47.969 14.9309 47.974 14.8609 47.978 14.7999ZM13.766 18.8729C13.455 19.0209 13.025 19.1229 12.402 19.1229C11.069 19.1229 10.239 17.7999 10.239 16.1829C10.239 14.0659 11.439 12.3899 13.203 12.3899C13.588 12.3899 14.181 12.5519 14.64 12.8169L14.3 14.3599C13.974 14.1399 13.633 14.0079 13.277 14.0079C12.462 14.0079 11.869 14.7579 11.869 16.0799C11.869 16.8449 12.299 17.4769 12.966 17.4769C13.366 17.4769 13.647 17.3889 13.988 17.1969L13.766 18.8729ZM19.472 17.3469L19.486 17.2419L20.212 12.4929H18.626L18.167 15.4629C18.048 16.4189 17.649 17.2269 16.982 17.2269C16.537 17.2569 16.359 16.8739 16.359 16.4919C16.359 16.2189 16.398 15.9559 16.436 15.6949L16.463 15.5069L16.908 12.4929H15.263L14.848 15.4929C14.758 16.1689 14.729 16.4039 14.729 16.8449C14.729 18.0949 15.233 19.0649 16.151 19.0649C16.996 19.0649 17.471 18.5799 17.93 17.8749H17.945L17.826 18.9179H19.293C19.335 18.3809 19.403 17.8679 19.472 17.3469ZM50.354 18.8439H50.102V17.7699H49.747V17.5349H50.71V17.7699H50.354V18.8439ZM51.762 18.8439H52V17.5349H51.644L51.437 18.5649H51.422L51.215 17.5349H50.845V18.8439H51.081V17.7559L51.303 18.8439H51.541L51.763 17.7559L51.762 18.8439Z" fill="#F3AE12"/>
</g>
</g>
</g>
<defs>
<clipPath id="clip0_2683_270">
<rect width="52" height="20" fill="white"/>
</clipPath>
<clipPath id="clip1_2683_270">
<rect width="52" height="20" fill="white"/>
</clipPath>
</defs>
</svg>
