<svg width="52" height="20" viewBox="0 0 52 20" fill="none" xmlns="http://www.w3.org/2000/svg">
<mask id="mask0_3726_1221" style="mask-type:luminance" maskUnits="userSpaceOnUse" x="6" y="0" width="40" height="20">
<path d="M46 0H6V20H46V0Z" fill="white"/>
</mask>
<g mask="url(#mask0_3726_1221)">
<path d="M8.14089 7.00715L6.00433 0.45738H6.91689L7.93399 3.68325C8.21493 4.56759 8.45887 5.3648 8.63311 6.13152H8.65271C8.83783 5.37351 9.11007 4.54582 9.39973 3.69197L10.5083 0.4552H11.4078L9.06652 7.00498L8.14089 7.00715Z" fill="white"/>
<path d="M11.8608 4.80937C11.8804 5.96597 12.6187 6.44299 13.4746 6.44299C13.9228 6.45737 14.3687 6.37412 14.7814 6.19903L14.9274 6.8111C14.4317 7.01743 13.8981 7.11689 13.3614 7.10298C11.9131 7.10298 11.0484 6.14894 11.0484 4.73095C11.0484 3.31296 11.8848 2.19556 13.2525 2.19556C14.788 2.19556 15.1974 3.5482 15.1974 4.41076C15.1956 4.54413 15.1854 4.67727 15.1669 4.80937H11.8608ZM14.3676 4.19729C14.3676 3.65275 14.1498 2.80762 13.1828 2.80762C12.3116 2.80762 11.9392 3.60483 11.876 4.19729H14.3676Z" fill="white"/>
<path d="M15.8639 3.77036C15.8639 3.2171 15.8639 2.74009 15.8247 2.30228H16.5739L16.6022 3.22582H16.6349C16.7154 2.93777 16.8854 2.68276 17.1202 2.49758C17.3551 2.31241 17.6428 2.20665 17.9416 2.19555C18.0231 2.19428 18.1044 2.20379 18.1834 2.22386V3.02978C18.0876 3.00829 17.9896 2.99806 17.8915 2.99929C17.2904 2.99929 16.8635 3.4567 16.7459 4.08837C16.7215 4.21988 16.7083 4.35324 16.7068 4.48698V6.99407H15.8617L15.8639 3.77036Z" fill="white"/>
<path d="M19.6469 0.980139C19.6469 1.12081 19.591 1.25571 19.4916 1.35517C19.3922 1.45464 19.2573 1.51052 19.1166 1.51052C18.976 1.51052 18.841 1.45464 18.7416 1.35517C18.6422 1.25571 18.5862 1.12081 18.5862 0.980139C18.5845 0.909383 18.5971 0.839 18.6235 0.77329C18.6497 0.707583 18.6892 0.647936 18.7393 0.597988C18.7895 0.54804 18.8493 0.508839 18.9151 0.482791C18.9809 0.456743 19.0513 0.444394 19.1221 0.446491C19.1924 0.443977 19.2625 0.456127 19.3279 0.482173C19.3933 0.508218 19.4526 0.547585 19.5019 0.597775C19.5513 0.647965 19.5897 0.707882 19.6147 0.773708C19.6396 0.839539 19.6506 0.909835 19.6469 0.980139ZM18.693 2.3023H19.5489V7.00497H18.693V2.3023Z" fill="white"/>
<path d="M20.6662 7.00717V2.95359H20.0128V2.30014H20.6662V2.08232C20.6662 1.42887 20.8122 0.81897 21.2107 0.43997C21.5215 0.151556 21.9323 -0.00466363 22.3562 0.00433558C22.6058 0.00296089 22.8534 0.0487867 23.0859 0.139388L22.9704 0.792841C22.7989 0.718032 22.6131 0.681602 22.426 0.686105C21.6985 0.686105 21.5134 1.32867 21.5134 2.04747V2.30014H22.6482V2.95359H21.5134V7.00717H20.6662Z" fill="white"/>
<path d="M24.4427 0.980139C24.4427 1.12051 24.387 1.25515 24.2877 1.35441C24.1885 1.45367 24.0539 1.50943 23.9135 1.50943C23.7731 1.50943 23.6385 1.45367 23.5393 1.35441C23.44 1.25515 23.3842 1.12051 23.3842 0.980139C23.3825 0.909383 23.3951 0.839 23.4214 0.77329C23.4477 0.707583 23.4872 0.647936 23.5373 0.597988C23.5874 0.54804 23.6473 0.508839 23.7131 0.482791C23.7788 0.456743 23.8493 0.444394 23.92 0.446491C23.9904 0.443977 24.0605 0.456127 24.1259 0.482173C24.1913 0.508218 24.2506 0.547585 24.2999 0.597775C24.3493 0.647965 24.3877 0.707882 24.4127 0.773708C24.4376 0.839539 24.4486 0.909835 24.4449 0.980139M23.4932 2.3023H24.3469V7.00497H23.4932V2.3023Z" fill="white"/>
<path d="M25.8541 4.80937C25.8736 5.96597 26.612 6.44299 27.4679 6.44299C27.9161 6.45744 28.3619 6.37419 28.7747 6.19903L28.9206 6.8111C28.4249 7.0173 27.8914 7.11676 27.3547 7.10298C25.9063 7.10298 25.0417 6.14894 25.0417 4.73095C25.0417 3.31296 25.878 2.19556 27.2457 2.19556C28.7834 2.19556 29.1907 3.5482 29.1907 4.41076C29.1894 4.54416 29.1792 4.67732 29.1602 4.80937H25.8541ZM28.3608 4.19729C28.3608 3.65275 28.1431 2.80762 27.1761 2.80762C26.3049 2.80762 25.9325 3.60483 25.8693 4.19729H28.3608Z" fill="white"/>
<path d="M33.9211 0.106689V5.79173C33.9211 6.20994 33.9211 6.68478 33.9582 7.00715H33.1872L33.148 6.19034H33.1283C32.9748 6.47926 32.743 6.71911 32.4595 6.88244C32.1761 7.04577 31.8523 7.12598 31.5254 7.11388C30.3885 7.11388 29.5152 6.15113 29.5152 4.71788C29.5152 3.15396 30.4778 2.19121 31.6234 2.19121C31.9023 2.17424 32.1807 2.2319 32.4298 2.35824C32.679 2.48457 32.8901 2.67502 33.0413 2.91001H33.0608V0.106689H33.9211ZM33.0652 4.21691C33.0666 4.09525 33.0535 3.97387 33.026 3.85534C32.9648 3.5741 32.809 3.32234 32.5847 3.14201C32.3604 2.96167 32.0811 2.86364 31.7933 2.86426C30.9068 2.86426 30.3842 3.64187 30.3842 4.68304C30.3842 5.6349 30.8502 6.42558 31.7737 6.42558C32.0678 6.42435 32.3526 6.32225 32.5805 6.13633C32.8084 5.95041 32.9657 5.69191 33.026 5.40401C33.0545 5.28345 33.0677 5.15976 33.0652 5.0359V4.21691Z" fill="white"/>
<path d="M37.0857 7.00715C37.1053 6.68478 37.1249 6.20994 37.1249 5.79173V0.106689H37.9786V3.0603H37.9982C38.1588 2.7811 38.3936 2.55187 38.6766 2.39807C38.9596 2.24427 39.2796 2.17191 39.6012 2.18903C40.7686 2.18903 41.5918 3.16049 41.5853 4.58502C41.5853 6.26657 40.5247 7.10299 39.4749 7.10299C39.1554 7.1212 38.8374 7.04761 38.5583 6.8909C38.2794 6.73421 38.0509 6.50095 37.9002 6.21866H37.8719L37.8305 6.99626L37.0857 7.00715ZM37.9786 5.12085C37.9811 5.22575 37.9942 5.3301 38.0178 5.43233C38.0886 5.71889 38.2535 5.97341 38.4861 6.15508C38.7187 6.33676 39.0056 6.43508 39.3007 6.43429C40.1958 6.43429 40.7294 5.7046 40.7294 4.62641C40.7294 3.68543 40.2437 2.88387 39.3311 2.88387C39.0276 2.88872 38.7344 2.99457 38.4977 3.1847C38.2611 3.37482 38.0945 3.63838 38.0243 3.93375C37.9959 4.04784 37.9798 4.16469 37.9764 4.28225L37.9786 5.12085Z" fill="white"/>
<path d="M42.5109 2.30231L43.5411 5.08383C43.6478 5.39531 43.7589 5.76343 43.8416 6.04659H43.859C43.9483 5.7656 44.0442 5.40402 44.1618 5.06423L45.094 2.30448H45.9978L44.715 5.65887C44.103 7.2729 43.6849 8.09843 43.1011 8.60376C42.8048 8.87606 42.4432 9.06736 42.0514 9.15919L41.8336 8.43822C42.1078 8.34807 42.3622 8.20611 42.5828 8.02001C42.8929 7.7627 43.1389 7.43684 43.3016 7.06815C43.3356 7.00509 43.3585 6.93652 43.369 6.86558C43.3609 6.79035 43.341 6.71686 43.3102 6.64776L41.5679 2.31319L42.5109 2.30231Z" fill="white"/>
<path d="M20.1848 10.2178L17.5931 16.774L16.5434 11.2001C16.5012 10.9261 16.3622 10.6764 16.1515 10.4961C15.941 10.316 15.6728 10.2172 15.3956 10.2178H11.1573L11.1007 10.4966C11.9496 10.6655 12.7746 10.9377 13.5574 11.3068C13.9233 11.5094 14.0278 11.6815 14.1476 12.1564L16.1361 19.8432H18.7692L22.8049 10.2178H20.1848Z" fill="white"/>
<path d="M23.8721 10.2178L21.8118 19.8497H24.3055L26.3593 10.2178H23.8721Z" fill="white"/>
<path d="M29.6306 12.8861C29.6306 12.5419 29.9682 12.1738 30.6869 12.0758C31.53 11.9991 32.3782 12.1495 33.1436 12.5115L33.5792 10.4705C32.8345 10.1875 32.0454 10.0401 31.2488 10.0349C28.7855 10.0349 27.0541 11.3417 27.0367 13.2236C27.0236 14.609 28.2759 15.3822 29.2146 15.8375C30.1533 16.2928 30.5214 16.6108 30.5062 17.0355C30.5062 17.6889 29.7308 17.9634 29.0164 17.9742C28.125 17.9942 27.2433 17.7858 26.4552 17.3688L26.0065 19.4794C26.8897 19.8222 27.8295 19.9959 28.7768 19.9913C31.3903 19.9913 33.1022 18.6975 33.1131 16.6957C33.1131 14.1515 29.5979 14.0122 29.6284 12.8774" fill="white"/>
<path d="M36.8439 16.4387L38.1681 12.8207L38.9129 16.4387H36.8439ZM37.7891 10.2178C37.5618 10.2159 37.3391 10.2824 37.15 10.4087C36.9609 10.5349 36.814 10.715 36.7285 10.9257L32.9911 19.8562H35.6047L36.1252 18.4164H39.3137L39.6142 19.8562H41.925L39.917 10.2178H37.7891Z" fill="white"/>
</g>
</svg>
