<svg width="200" height="200" viewBox="0 0 200 200" fill="none" xmlns="http://www.w3.org/2000/svg">
<path d="M142.269 155.488C143.069 155.223 142.165 138.964 141.557 138.035C140.95 137.107 114.706 137.755 114.602 139.22C114.499 140.685 113.801 154.855 115.058 156.455C117.436 156.076 139.94 155.488 142.269 155.488Z" fill="#00A046"/>
<path d="M158.842 107.009C158.31 107.542 144.576 154.867 144.658 155.324C149.054 155.243 166.57 154.94 167.075 155.475C167.58 156.01 168.748 176.706 168.748 181.406C170.021 181.654 173.495 182.206 174 181.406C174.505 180.605 191.268 114.897 191.044 113.91C190.819 112.923 159.374 106.477 158.842 107.009Z" fill="#00A046"/>
<path d="M101.505 159.19C101.052 159.722 103.469 183.875 104.235 184.48C105.142 185.196 165.878 183.383 166.27 182.078C166.662 180.774 165.469 158.717 164.525 158.061C163.58 157.404 101.957 158.657 101.505 159.19Z" fill="#00A046"/>
<path d="M151.228 75.2434C162.524 73.0833 169.789 59.8142 164.717 48.825C157.162 32.448 129.033 38.7136 128.428 57.45C128.052 69.0861 140.332 77.3258 151.228 75.2434ZM133.167 48.7522C139.964 39.4189 155.784 38.2987 161.931 47.4392C167.974 56.4313 163.177 69.5882 152.941 72.9855C138.545 77.7667 123.33 62.2589 133.167 48.7522Z" fill="#00A046"/>
<path d="M137.802 57.0781C140.865 59.4803 143.792 62.0513 146.568 64.7793C146.65 64.8619 146.746 64.9275 146.853 64.9725C146.96 65.0175 147.074 65.041 147.19 65.0415C147.306 65.042 147.421 65.0197 147.528 64.9756C147.635 64.9316 147.732 64.8669 147.814 64.7851C148.163 64.4391 152.797 58.4917 158.513 52.1791C159.825 50.7292 159.655 48.7876 155.591 52.1791C153.178 54.1916 148.506 58.8875 146.425 61.1214C145.498 60.2259 144.505 59.4016 143.454 58.6556C136.459 53.7959 136.297 55.7978 137.802 57.0781Z" fill="#00A046"/>
<path d="M71.7963 31.5166C61.0744 33.9076 61.6849 43.2523 64.3107 47.2917C64.1986 39.1899 80.9464 37.9096 84.7414 45.0664C85.141 44.41 85.854 42.8891 87.3184 42.4885C87.167 37.6326 82.9053 29.0393 71.7963 31.5166Z" fill="#00A046"/>
<path d="M76.5275 60.5052C81.1275 64.1468 84.6925 58.3192 81.8942 54.3325C81.8136 54.201 81.6967 54.0956 81.5577 54.0289C81.4186 53.9622 81.2633 53.9371 81.1103 53.9565C80.9573 53.9759 80.8131 54.0391 80.6952 54.1385C80.5772 54.2378 80.4904 54.3691 80.4452 54.5165C80.2581 55.583 79.7878 56.5797 79.0836 57.4022C78.3794 58.2247 77.4672 58.843 76.4423 59.1922C75.8423 59.4031 75.9909 60.0797 76.5275 60.5052ZM81.2349 55.6378C82.7481 58.5511 80.3724 62.2742 77.3354 59.7519C78.262 59.4191 79.0975 58.8735 79.7748 58.159C80.4521 57.4444 80.9522 56.5809 81.2349 55.6378Z" fill="#2B2B2B"/>
<path d="M78.0724 45.1498C77.6404 44.8722 77.1569 44.6845 76.6507 44.5979C76.1446 44.5113 75.6262 44.5276 75.1264 44.6457C73.8662 44.9524 74.0292 46.4311 75.3344 46.2471C76.0564 46.0613 76.8174 46.0947 77.5204 46.3429C78.6483 46.6553 78.7604 45.6941 78.0724 45.1498Z" fill="#2B2B2B"/>
<path d="M77.0077 51.1624C77.8031 50.6094 77.1035 48.9189 76.4557 49.1048C75.6785 49.3272 76.2017 51.722 77.0077 51.1624Z" fill="#2B2B2B"/>
<path d="M73.1485 51.6109C73.1437 51.5636 73.1298 51.5177 73.1073 51.4759C73.0849 51.434 73.0544 51.397 73.0176 51.3669C72.9809 51.3369 72.9386 51.3143 72.8931 51.3006C72.8476 51.2869 72.7999 51.2822 72.7527 51.2869C72.7054 51.2917 72.6595 51.3056 72.6177 51.3281C72.5758 51.3505 72.5388 51.381 72.5087 51.4178C72.4787 51.4545 72.4561 51.4968 72.4424 51.5423C72.4287 51.5878 72.424 51.6355 72.4287 51.6827C72.4767 53.54 70.9405 55.173 71.0871 56.3901C71.3746 58.7917 77.368 57.5497 76.6914 55.1251C76.564 54.6689 75.9707 54.8529 75.8902 55.2132C75.4264 56.8146 72.6885 56.8146 72.2562 56.3814C71.824 55.9483 73.5088 53.0992 73.1485 51.6109Z" fill="#2B2B2B"/>
<path d="M68.7142 46.823C68.231 46.8989 67.7907 47.1446 67.4722 47.5159C67.1538 47.8872 66.9781 48.3598 66.9768 48.849C66.9655 48.9371 66.9838 49.0265 67.0288 49.1031C67.0739 49.1797 67.1431 49.2391 67.2257 49.2721C67.3082 49.305 67.3993 49.3096 67.4848 49.285C67.5702 49.2605 67.645 49.2082 67.6974 49.1365C68.0832 48.7023 68.5738 48.3743 69.1225 48.1839C70.054 47.8561 69.4742 46.7751 68.7142 46.823Z" fill="#2B2B2B"/>
<path d="M69.8029 52.9458C70.6031 52.8893 70.123 50.5998 69.3381 50.8883C68.5532 51.1767 69.1225 52.9957 69.8029 52.9458Z" fill="#2B2B2B"/>
<path d="M16.165 76.2602C15.3648 76.4595 11.9359 80.035 12.9632 82.8324C13.1443 83.3269 14.0174 83.4074 14.0912 82.8324C14.6125 78.9167 16.6777 77.8625 16.8167 76.8687C16.8471 76.7796 16.8511 76.6835 16.8282 76.5921C16.8053 76.5008 16.7565 76.4179 16.6877 76.3536C16.6188 76.2893 16.5329 76.2463 16.4401 76.2297C16.3474 76.2132 16.2519 76.2237 16.165 76.2602Z" fill="#2B2B2B"/>
<path d="M23.3698 93.2552C22.6721 92.134 17.5019 88.4521 19.5431 85.8349C20.168 85.0337 21.1445 84.7136 21.8968 84.0734C21.9718 83.9934 22.0221 83.8934 22.0416 83.7855C22.0612 83.6776 22.0491 83.5663 22.0069 83.4651C21.9647 83.3638 21.8941 83.2769 21.8037 83.2149C21.7132 83.1528 21.6068 83.1181 21.4972 83.1151C19.0151 83.3154 16.9029 85.8157 17.6063 88.2786C18.098 90.0036 21.11 93.6807 22.4095 94.2117C22.9845 94.4417 23.7703 93.8992 23.3698 93.2552Z" fill="#2B2B2B"/>
<path d="M18.7592 79.646C18.7592 79.3824 18.4219 79.2272 18.19 79.2626C17.5565 79.3585 15.315 82.1051 15.1003 84.0658C15.014 84.867 15.4434 86.0179 16.4055 85.5714C17.1329 85.2331 16.4055 85.0769 16.8531 83.6739C17.3485 82.106 18.7908 80.1261 18.7592 79.646Z" fill="#2B2B2B"/>
<path d="M12.7783 77.645C12.1563 76.0105 11.7111 74.3142 11.45 72.585C11.4262 72.4501 11.3532 72.3288 11.2451 72.2447C11.1371 72.1605 11.0016 72.1195 10.865 72.1295C10.7284 72.1396 10.6004 72.1999 10.5057 72.2989C10.4111 72.3979 10.3566 72.5285 10.3527 72.6655C10.3563 74.5323 10.6982 76.3831 11.3618 78.128C11.4391 78.2987 11.5773 78.4345 11.7494 78.5087C11.9214 78.5829 12.115 78.5902 12.2922 78.5292C12.4694 78.4682 12.6174 78.3432 12.7073 78.1788C12.7972 78.0143 12.8225 77.8271 12.7783 77.645Z" fill="#2B2B2B"/>
<path d="M31.4475 77.4686C34.2583 79.875 32.9224 82.0111 32.2458 85.1458C31.1303 90.3323 33.9708 90.1982 33.8463 88.9888C33.6239 86.8277 33.3335 87.213 34.0542 84.522C34.863 81.5051 35.5281 79.046 32.8295 76.7403C31.885 76.0666 31.0108 75.2996 30.2199 74.4508C29.8308 73.9621 27.4915 74.0771 31.4475 77.4686Z" fill="#2B2B2B"/>
<path d="M14.6681 74.17C14.4553 71.8643 10.6249 61.6331 10.5607 60.8406C10.4965 60.048 16.5503 57.7174 17.1895 58.071C18.488 58.7888 24.3367 77.3603 25.0996 79.9344C25.3363 80.7337 26.3962 83.4889 25.9716 84.1377C25.5471 84.7865 22.7698 85.4985 22.1929 85.7381C21.1685 86.2508 21.1905 87.4631 22.3769 87.1957C23.6494 86.8996 24.8887 86.4757 26.0761 85.9307C28.3311 84.911 27.758 83.3202 27.0603 80.9752C25.0785 74.3138 22.7813 67.6352 20.3357 61.1377C19.3524 58.5252 18.6998 55.3512 15.8363 56.6536C15.3638 56.8692 9.83713 58.9249 9.38384 59.4242C8.33638 60.5742 9.48638 62.6269 9.88026 63.8325C10.3671 65.3217 12.8291 73.2107 13.5708 74.424C13.8458 74.8677 14.7246 74.7862 14.6681 74.17Z" fill="#2B2B2B"/>
<path d="M85.5579 125.318C86.7348 124.926 87.0405 127.151 90.5614 127.88C93.469 128.482 93.2831 126.826 92.779 126.807C89.5043 126.657 87.9279 124.156 86.27 123.709C82.7241 122.751 81.4668 129.057 84.8852 133.268C84.9267 133.329 84.9798 133.381 85.0415 133.421C85.1032 133.462 85.1723 133.49 85.2448 133.503C85.3173 133.517 85.3918 133.516 85.464 133.501C85.5362 133.486 85.6048 133.457 85.6657 133.416C85.7267 133.374 85.7789 133.321 85.8193 133.259C85.8598 133.198 85.8877 133.128 85.9014 133.056C85.9152 132.984 85.9145 132.909 85.8995 132.837C85.8844 132.765 85.8553 132.696 85.8138 132.635C85.0136 131.107 83.2205 126.096 85.5579 125.318Z" fill="#2B2B2B"/>
<path d="M93.8753 114.847C91.0733 114.832 88.2799 114.535 85.5378 113.958C84.3295 113.625 83.0738 113.498 81.8233 113.582C79.7418 113.886 77.2453 115.755 70.927 115.832C70.3348 115.838 70.375 116.777 70.927 116.864C73.0709 117.06 75.2323 116.917 77.3316 116.44C75.9321 117.788 74.8194 119.404 74.06 121.192C73.3007 122.981 72.9104 124.904 72.9127 126.847C72.9127 127.479 73.871 127.584 73.9295 126.935C74.0992 124.87 74.7008 122.864 75.6951 121.046C76.6894 119.229 78.0543 117.64 79.7015 116.384C82.6264 114.18 83.4754 115.157 86.7386 115.679C89.1183 116.077 91.5327 116.227 93.9433 116.128C94.0296 116.126 94.1147 116.107 94.1934 116.072C94.2722 116.036 94.343 115.986 94.4017 115.922C94.4604 115.859 94.5057 115.785 94.5349 115.703C94.5642 115.622 94.5768 115.536 94.5719 115.45C94.5671 115.364 94.5449 115.279 94.5068 115.202C94.4686 115.125 94.4153 115.056 94.3499 114.999C94.2845 114.943 94.2084 114.9 94.1262 114.874C94.044 114.848 93.9612 114.839 93.8753 114.847Z" fill="#2B2B2B"/>
<path d="M83.3643 123.029C83.7476 122.462 83.1966 121.597 82.5075 121.924C81.0834 122.595 79.9057 125.07 79.5932 126.535C79.3683 128.7 79.4925 130.887 79.9612 133.012C79.9832 133.137 80.0499 133.249 80.1488 133.328C80.2478 133.408 80.3722 133.448 80.4989 133.442C80.6255 133.436 80.7457 133.385 80.8369 133.297C80.9281 133.208 80.984 133.09 80.9943 132.964C81.1965 129.985 79.9402 127.055 82.4912 123.981C82.7634 123.653 83.1266 123.383 83.3643 123.029Z" fill="#2B2B2B"/>
<path d="M80.8103 118.649C79.2137 119.34 77.298 121.958 76.6234 123.501C75.6476 125.793 75.4234 128.335 75.9832 130.762C75.9915 130.829 76.013 130.893 76.0464 130.952C76.0798 131.011 76.1246 131.062 76.178 131.104C76.2315 131.145 76.2926 131.175 76.3579 131.193C76.4231 131.211 76.4912 131.215 76.5582 131.206C76.671 131.193 76.7758 131.141 76.856 131.061C76.9361 130.98 76.9868 130.875 77 130.763C77.3651 127.112 76.9291 124.946 79.529 121.805C80.1864 121.011 81.0509 120.492 81.6987 119.739C82.1875 119.098 81.4083 118.389 80.8103 118.649Z" fill="#2B2B2B"/>
<path d="M128.62 133.652C134.616 133.248 139.617 132.266 141.228 125.447C142.292 120.942 140.581 116.432 138.731 112.389C138.339 111.533 136.966 112.07 137.362 112.941C138.95 116.438 140.453 120.291 139.899 124.189C138.629 133.14 128.692 132.498 121.775 132.283C111.127 131.953 105.196 130.066 95.3569 128.536C96.3727 125.478 97.8485 119.026 97.3502 115.727C105.868 114.865 118.701 114.567 125.545 114.679C125.68 114.672 125.808 114.617 125.905 114.524C126.003 114.431 126.064 114.306 126.076 114.172C126.089 114.037 126.053 113.903 125.975 113.793C125.896 113.683 125.781 113.605 125.65 113.574C122.807 112.832 102.539 113.075 97.0694 114.287C95.7277 114.584 95.79 115.087 95.8849 116.48C96.1533 120.427 94.6678 125.686 94.1877 127.615C93.8044 129.161 94.1408 129.413 95.4767 129.761C105.154 132.28 118.733 134.317 128.62 133.652Z" fill="#2B2B2B"/>
<path d="M112.921 111.709C123.072 111.459 133.254 110.889 143.446 110.655C152.484 110.445 151.948 114.321 153.661 121.638C155.373 128.955 156.837 136.16 158.74 143.342C158.813 143.601 158.984 143.821 159.216 143.956C159.449 144.091 159.725 144.129 159.986 144.064C160.247 143.998 160.472 143.833 160.613 143.604C160.754 143.375 160.8 143.1 160.741 142.837C158.974 134.879 157.004 126.956 155.137 119.012C153.378 111.529 151.887 108.375 144.466 108.685C135.956 109.045 117.464 109.356 112.691 109.758C111.432 109.861 111.672 111.74 112.921 111.709Z" fill="#2B2B2B"/>
<path d="M105.099 133.292C104.115 136.823 103.39 140.422 102.93 144.059C102.758 145.459 104.463 146.278 104.947 143.988C105.375 141.963 106.451 135.804 106.701 133.748C106.785 133.051 105.34 132.62 105.099 133.292Z" fill="#2B2B2B"/>
<path d="M58.2828 142.675C52.0862 149.559 43.949 142.879 40.2297 137.404C29.3565 121.378 30.0465 111.452 24.0741 97.3704C28.4378 97.1108 32.643 95.6418 36.2191 93.1278C41.5836 102.34 46.4462 111.835 50.7857 121.571C50.9985 122.05 51.8265 121.788 51.6741 121.275C48.847 111.749 43.0002 101.619 37.9767 92.9754C36.841 91.0214 36.6695 90.8326 35.1582 91.8868C31.7295 94.2495 27.7405 95.6705 23.5902 96.0076C21.9859 96.1494 22.2926 96.7446 22.7018 97.9051C28.2017 113.498 28.9683 123.958 39.2417 138.8C43.5868 145.078 52.1044 151.472 58.9594 143.603C59.4472 143.038 58.7917 142.114 58.2828 142.675Z" fill="#2B2B2B"/>
<path d="M81.5463 162.985C80.3647 162.685 66.9528 162.648 64.9672 162.744C65.4559 144.884 55.2736 129.298 55.7672 112.109C56.0771 105.599 57.9262 99.2564 61.1626 93.6003C61.4836 93.008 60.5167 92.4043 60.1381 92.9754C56.9862 97.8106 55.0297 103.326 54.4303 109.067C52.3776 127.295 63.6303 144.291 63.3428 163.145C63.2412 169.829 62.0107 173.827 61.0428 180.933C60.9642 181.508 61.843 181.838 62.0749 181.229C63.6896 175.702 64.6384 170.002 64.9011 164.25C67.9188 164.481 78.7825 164.754 81.5693 164.169C81.6967 164.129 81.8077 164.049 81.8856 163.941C81.9636 163.832 82.0043 163.702 82.0017 163.568C81.9991 163.435 81.9533 163.306 81.8712 163.201C81.7891 163.095 81.6751 163.02 81.5463 162.985Z" fill="#2B2B2B"/>
<path d="M47.1144 103.527C51.7593 91.1099 61.1434 81.045 73.205 75.5433C73.3967 79.4984 75.1217 87.0155 77.1437 90.3697C77.9602 91.7209 80.2507 88.8258 80.7059 88.3284C87.6059 80.7864 95.7651 74.6712 100.328 72.3176C118.204 75.8634 129.816 95.9328 135.144 106.365C135.574 107.207 136.965 106.669 136.529 105.821C129.499 92.0592 120.006 77.5759 104.904 72.0454C99.8764 70.2035 99.6809 70.8954 96.1542 73.2222C90.064 77.2396 82.6676 83.4486 78.1203 89.2369C75.8711 85.5704 74.7575 78.4844 74.4614 75.0987C74.3837 74.2026 74.0713 73.4819 72.861 73.9544C60.786 78.6675 50.3047 90.8268 46.018 103.127C45.9896 103.199 45.9759 103.277 45.9778 103.355C45.9798 103.433 45.9972 103.509 46.0292 103.58C46.0612 103.651 46.1071 103.715 46.1641 103.768C46.2212 103.821 46.2883 103.862 46.3614 103.889C46.4346 103.915 46.5123 103.927 46.5901 103.923C46.6678 103.919 46.744 103.9 46.8142 103.866C46.8843 103.833 46.947 103.785 46.9986 103.727C47.0502 103.668 47.0895 103.6 47.1144 103.527Z" fill="#2B2B2B"/>
<path d="M186.941 143.651C132.968 148.764 113.651 146.202 85.0212 148.623C83.6125 148.742 82.4702 148.623 82.9129 150.368C85.5397 160.647 87.9921 169.411 92.135 179.364C95.5332 187.528 95.7057 189.102 104.944 188.971C125.679 188.676 146.057 188.054 166.739 187.178C172.528 186.932 178.189 187.019 181.038 181.189C184.314 174.481 187.634 153.397 188.354 145.036C188.337 144.67 188.181 144.323 187.919 144.067C187.657 143.81 187.308 143.662 186.941 143.651ZM170.617 147.117C170.217 149.006 169.328 162.416 169.179 164.529L153.969 164.954C153.601 159.598 153.56 153.49 152.864 148.27L170.617 147.117ZM151.116 148.363C151.068 151.391 151.804 161.373 152.052 165.007L136.121 165.455C135.425 160.172 135.184 154.159 134.263 149.076C148.881 148.563 151.117 148.267 151.116 148.363ZM132.422 149.164C132.367 152.534 133.591 161.749 134.096 165.552C126.821 165.77 119.543 166.005 112.264 166.256C111.311 160.94 110.551 154.704 109.262 149.549L132.422 149.164ZM180.104 177.984C177.804 185.189 174.02 184.884 167.086 185.189C146.104 186.122 125.185 186.689 104.171 186.991C97.4384 187.087 97.379 186.527 94.6439 180.13C90.3007 169.972 87.8876 161.029 84.9015 150.613C92.5145 150.117 99.7432 149.764 107.389 149.54C107.557 152.022 109.663 163.013 110.255 166.296C104.026 166.504 97.7671 166.613 91.5542 167.097C90.3927 167.187 90.6332 168.862 91.7535 168.858C98.0306 168.835 104.323 168.441 110.599 168.226C111.447 172.933 112.662 180.238 113.801 184.637C114.038 185.55 115.627 185.397 115.498 184.404C114.937 180.034 113.473 172.821 112.616 168.153L134.36 167.457C135.16 173.277 136.044 179.103 137.242 184.845C137.492 186.045 139.225 185.494 139.035 184.332C138.12 178.731 137.161 173.06 136.385 167.401C141.653 167.241 146.92 167.091 152.188 166.952C152.571 172.556 152.963 178.119 153.565 183.685C153.688 184.821 155.442 184.805 155.367 183.636C155.003 178.033 154.526 172.476 154.121 166.896L169.071 166.488C168.911 168.89 168.007 181.498 168.23 183.451C168.267 183.628 168.36 183.789 168.496 183.909C168.632 184.029 168.802 184.101 168.983 184.116C169.163 184.13 169.344 184.086 169.497 183.989C169.65 183.892 169.767 183.748 169.832 183.579C170.172 182.109 170.825 169.289 171.016 166.447C174.539 166.375 178.053 166.283 181.568 166.103C182.785 166.041 182.536 164.246 181.36 164.246C177.958 164.246 174.555 164.342 171.152 164.446C171.58 158.617 171.999 152.789 172.41 146.961C177.09 146.603 181.768 146.201 186.444 145.753C184.506 157.128 183.641 166.919 180.103 177.967L180.104 177.984Z" fill="#2B2B2B"/>
<path d="M112.153 108.618C112.632 109.056 113.46 108.378 113.025 107.818C111.673 106.079 110.218 104.421 108.821 102.71C107.664 101.291 106.501 102.231 107.589 103.599C108.978 105.388 110.504 107.066 112.153 108.618Z" fill="#2B2B2B"/>
<path d="M54.3278 41.4458C48.94 43.4238 51.9262 52.8864 58.8032 50.0709C55.8084 55.2593 62.005 60.2704 67.2365 57.7567C68.8379 61.5114 73.2568 69.2691 77.9401 68.5082C77.6919 72.1422 77.1466 72.7249 76.3388 75.5769C76.2276 75.9698 76.6263 76.8026 77.3076 76.0331C78.31 74.8984 79.7092 69.4848 79.437 68.0923C82.0792 67.1071 85.0538 64.7381 86.1138 62.0318C86.3485 61.4319 85.7803 61.0898 85.3135 61.6236C83.7218 63.4444 83.3355 64.4257 80.8458 65.8747C78.356 67.3237 76.5496 67.7856 74.4901 65.8747C68.9423 60.7266 66.8081 54.4006 66.1881 47.2217C66.1785 47.0926 66.1186 46.9723 66.0213 46.8868C65.924 46.8014 65.797 46.7575 65.6677 46.7646C65.6036 46.7687 65.5409 46.7855 65.4832 46.8139C65.4255 46.8423 65.3741 46.8818 65.3317 46.9302C65.2893 46.9785 65.2569 47.0347 65.2363 47.0956C65.2157 47.1565 65.2073 47.2208 65.2115 47.285C65.1511 48.3288 65.1752 49.3759 65.2834 50.4159C60.3355 45.9644 58.0787 35.4793 68.6299 31.0901C79.4179 26.5917 88.5278 31.5808 88.7434 43.2667C87.8724 43.3745 87.0575 43.7545 86.415 44.3524C85.7725 44.9504 85.3351 45.7358 85.165 46.5969C85.0404 47.2447 86.038 47.3981 86.2537 46.8211C86.8287 45.2878 89.6471 42.3706 90.7368 47.2859C91.8733 52.4092 88.3467 53.425 88.5201 54.9306C88.9035 58.2905 90.3956 67.9505 92.7464 72.447C92.9553 72.8466 93.8226 72.5984 93.6913 72.1595C92.3051 67.5811 91.2035 62.9215 90.3927 58.2071C92.9227 60.1841 99.127 59.4002 97.7498 52.4753C102.297 55.381 107.157 47.2955 102.225 45.0463C107.229 44.3573 108.518 35.7917 101.24 35.1113C108.365 32.2286 104.123 22.3654 97.0694 24.6396C101.464 19.1771 92.3468 11.0312 87.3586 18.0433C88.7118 10.6833 75.711 7.5793 75.0067 16.3778C72.3808 8.19168 58.8032 11.9752 62.694 20.3807C55.9205 14.5349 49.8849 25.1839 55.3925 28.9463C48.6333 27.298 46.5863 40.9475 54.3278 41.4458Z" fill="#2B2B2B"/>
</svg>
