<svg width="52" height="20" viewBox="0 0 52 20" fill="none" xmlns="http://www.w3.org/2000/svg">
<mask id="mask0_2683_255" style="mask-type:luminance" maskUnits="userSpaceOnUse" x="3" y="0" width="46" height="20">
<path d="M3 0H49V20H3V0Z" fill="white"/>
</mask>
<g mask="url(#mask0_2683_255)">
<path d="M17.236 10.6499H13.456L13.44 10.8069C16.37 11.5519 18.311 13.4079 19.126 15.5939L18.311 11.4139C18.172 10.8409 17.756 10.6679 17.254 10.6499H17.236Z" fill="#FA9D10"/>
<path fill-rule="evenodd" clip-rule="evenodd" d="M36.307 7.66692V8.44792H37.486L38.769 0.138916L37.347 0.364916L36.931 3.03592C36.619 2.91492 36.221 2.82792 35.683 2.82792C34.4 2.82792 33.117 3.74792 32.805 5.81092C32.51 7.68492 33.308 8.55192 34.469 8.55192C35.232 8.55192 35.839 8.13592 36.307 7.66692ZM35.735 3.92092C36.203 3.92092 36.463 4.00692 36.775 4.16292L36.792 4.14592L36.428 6.53992C35.978 7.00792 35.544 7.30292 35.041 7.30292C34.417 7.30292 34.036 6.79992 34.209 5.72492C34.399 4.50992 35.007 3.92092 35.735 3.92092ZM24.622 1.35292C24.154 1.35292 23.859 1.56092 23.79 2.04692L23.668 2.86192H24.726V3.98992H23.495L22.819 8.41292H21.449L22.125 3.98992H21.328L21.501 2.86192H22.299L22.437 1.90792C22.628 0.675916 23.477 0.224916 24.622 0.224916C24.864 0.224916 25.038 0.242916 25.177 0.276916L25.194 1.40492C25.165 1.40112 25.136 1.39712 25.107 1.39292C24.9465 1.36786 24.7844 1.35449 24.622 1.35292ZM19.42 2.87992L18.57 8.42992H19.957L20.807 2.87992H19.42ZM19.558 1.16292C19.489 1.61292 19.801 1.94292 20.269 1.94292C20.719 1.94292 21.136 1.63092 21.205 1.16292C21.275 0.693916 20.963 0.364916 20.512 0.364916C20.044 0.364916 19.628 0.694916 19.558 1.16292ZM6.36601 8.46392H4.87501L3.14001 0.675916L4.80601 0.399916L5.98501 6.48792L8.98401 0.484916H10.56L6.36501 8.46492L6.36601 8.46392ZM34.469 10.8739C33.8002 10.615 33.0882 10.4857 32.371 10.4929C30.048 10.4929 28.419 11.7249 28.419 13.4929C28.401 14.7949 29.58 15.5229 30.464 15.9569C31.384 16.4079 31.678 16.6849 31.678 17.0839C31.661 17.6919 30.95 17.9689 30.274 17.9689C29.337 17.9689 28.834 17.8299 28.072 17.5009L27.76 17.3619L27.43 19.3919C27.985 19.6519 28.99 19.8599 30.048 19.8769C32.51 19.8769 34.105 18.6629 34.122 16.7719C34.14 15.7319 33.498 14.9509 32.146 14.3089C31.331 13.8929 30.828 13.6149 30.828 13.1819C30.828 12.7999 31.244 12.4009 32.163 12.4009C32.7655 12.3817 33.3644 12.5004 33.914 12.7479L34.122 12.8519L34.435 10.8919L34.469 10.8749V10.8739ZM19.369 16.8419L21.657 10.6489H24.154L20.461 19.7039H17.981L15.884 11.7589C17.323 12.4189 18.554 14.0319 19.126 15.5749L19.369 16.8419ZM25.089 10.6489L23.616 19.7209H25.956L27.43 10.6489H25.089ZM38.665 10.6489H40.468V10.6319L42.358 19.7039H40.173C40.173 19.7039 39.965 18.6639 39.896 18.3509H36.896L36.411 19.7209H33.949L37.434 11.3949C37.676 10.8049 38.111 10.6489 38.665 10.6489ZM38.509 13.9629C38.509 13.9629 37.763 15.9749 37.572 16.4949H39.514C39.3379 15.621 39.1589 14.7477 38.977 13.8749L38.821 13.0949C38.766 13.2509 38.695 13.4449 38.634 13.6089C38.558 13.8119 38.499 13.9719 38.509 13.9629ZM10.56 5.91492H14.115C14.132 5.84492 14.167 5.70692 14.184 5.58492C14.426 4.00692 13.872 2.75792 12.207 2.75792C10.751 2.75792 9.50301 3.85092 9.22501 5.65492C8.91301 7.64992 9.93601 8.53492 11.497 8.53492C12.398 8.53492 13.161 8.27392 13.82 7.85792V6.78192C13.144 7.21592 12.52 7.47592 11.809 7.47592C10.959 7.47592 10.456 6.98992 10.56 5.91492ZM12.026 3.71192C11.474 3.71592 10.958 4.14992 10.716 5.06492H12.92C12.955 4.20192 12.697 3.71592 12.028 3.71192H12.026ZM16.456 5.23792L15.97 8.42992H14.583L15.433 2.87992H16.611V3.98992C17.079 3.34792 17.721 2.80992 18.587 2.75792V4.12792C17.721 4.17992 16.941 4.64792 16.455 5.23792H16.456ZM25.488 2.87992L24.638 8.42992H26.025L26.875 2.87992H25.488ZM25.626 1.16292C25.557 1.61292 25.869 1.94292 26.337 1.94292C26.787 1.94292 27.204 1.63092 27.273 1.16292C27.343 0.693916 27.031 0.364916 26.58 0.364916C26.112 0.364916 25.696 0.694916 25.626 1.16292ZM32.214 5.91492H28.66C28.556 6.98992 29.06 7.47592 29.909 7.47592C30.619 7.47592 31.243 7.21592 31.919 6.78192V7.85792C31.2264 8.30317 30.4194 8.53799 29.596 8.53392C28.036 8.53392 27.013 7.64992 27.326 5.65392C27.603 3.85092 28.851 2.75792 30.307 2.75792C31.972 2.75792 32.527 4.00692 32.284 5.58492C32.266 5.70692 32.232 5.84492 32.214 5.91492ZM30.126 3.71192C29.574 3.71592 29.058 4.14992 28.816 5.06492H31.018C31.053 4.20192 30.795 3.71592 30.126 3.71192ZM41.716 8.48192C41.1435 8.48756 40.5744 8.39384 40.034 8.20492L40.935 2.30692L42.01 2.13392L41.611 4.68392C41.923 4.40592 42.357 4.12892 42.894 4.12892C43.778 4.12892 44.385 4.78792 44.16 6.20992C43.917 7.75392 42.964 8.48192 41.716 8.48192ZM42.478 5.06492C42.131 5.06492 41.785 5.30792 41.473 5.61992L41.178 7.52792C41.386 7.61492 41.524 7.64992 41.819 7.64992C42.478 7.64992 42.946 7.24992 43.085 6.29692C43.206 5.48192 42.946 5.08292 42.478 5.08292V5.06492ZM44.766 10.0079C45.581 10.0079 46.101 9.69592 46.639 8.65492H46.656L48.927 4.21492H47.887L46.5 7.14592L45.98 4.14592L44.87 4.28392L45.755 8.42992L45.615 8.70792C45.443 9.01992 45.182 9.15792 44.87 9.15792C44.662 9.15792 44.524 9.12392 44.385 9.08892V9.95592C44.489 9.99092 44.575 10.0079 44.766 10.0079Z" fill="#0632AD"/>
</g>
</svg>
