<svg width="23" height="21" viewBox="0 0 23 21" fill="none" xmlns="http://www.w3.org/2000/svg">
<g clip-path="url(#clip0_1916_498)">
<path d="M23 8.76172H0V20.2618H23V8.76172Z" fill="#9E9E9E" fill-opacity="0.16"/>
<path d="M8.98036 0.0947901L6.72119 5.49783H5.23857L4.12418 1.18609C4.05613 0.921167 4.00265 0.821516 3.79241 0.710927C3.3535 0.501132 2.89016 0.346822 2.41309 0.251559L2.44591 0.0947901H4.82417C4.97975 0.0943649 5.13035 0.149641 5.24871 0.250616C5.36707 0.351592 5.44538 0.491598 5.46947 0.645303L6.05766 3.77217L7.51597 0.0947901H8.98036ZM14.7698 3.74057C14.7698 2.31385 12.7987 2.23486 12.8121 1.59807C12.8121 1.40484 13.0004 1.19825 13.4051 1.14599C13.878 1.101 14.3542 1.18499 14.7832 1.38904L15.0263 0.243052C14.6086 0.0852678 14.1663 0.00297052 13.7198 0C12.3369 0 11.3659 0.729156 11.3574 1.78522C11.3489 2.56298 12.0525 3.00048 12.5812 3.2569C13.1098 3.51332 13.3103 3.69074 13.3103 3.92772C13.3103 4.2923 12.8765 4.45028 12.4754 4.45636C11.9737 4.46712 11.4777 4.34824 11.0353 4.11122L10.7814 5.2961C11.2769 5.48872 11.804 5.58722 12.3357 5.58655C13.8049 5.58655 14.7662 4.85739 14.7662 3.73814L14.7698 3.74057ZM18.412 5.50148H19.7038L18.5821 0.0947901H17.3899C17.2624 0.0934465 17.1374 0.130513 17.0312 0.201168C16.925 0.271824 16.8425 0.3728 16.7945 0.490965L14.6969 5.49783H16.165L16.4566 4.6909H18.2491L18.412 5.50148ZM16.8589 3.5838L17.5941 1.55432L18.0231 3.5838H16.8589ZM10.9746 0.0947901L9.82253 5.49783H8.42255L9.57826 0.0947901H10.9746Z" fill="#9E9E9E"/>
<path d="M5.07396 15.43C5.27581 15.5425 5.50277 15.6022 5.73384 15.6038C6.04981 15.6038 6.22845 15.4543 6.22845 15.2307C6.22845 15.0071 6.08991 14.9038 5.74235 14.7774C5.28906 14.6194 5.00226 14.3776 5.00226 13.9887C5.00226 13.5391 5.37413 13.2036 5.97446 13.2036C6.19892 13.1982 6.42168 13.2439 6.62584 13.3373L6.50432 13.742C6.3368 13.6538 6.15041 13.6075 5.9611 13.6071C5.64513 13.6071 5.51145 13.7736 5.51145 13.9352C5.51145 14.1455 5.66943 14.2427 6.03401 14.38C6.50675 14.5623 6.734 14.8017 6.734 15.1894C6.734 15.6305 6.40224 16.0073 5.70225 16.0073C5.44512 16.0104 5.19097 15.952 4.96094 15.8371L5.07396 15.43Z" fill="#9E9E9E"/>
<path d="M8.66628 14.7564H7.6406V15.5585H8.7878V15.9668H7.14355V13.2422H8.72339V13.6505H7.62966V14.3554H8.66628V14.7564Z" fill="#9E9E9E"/>
<path d="M11.1422 15.8851C10.9166 15.9728 10.6756 16.0141 10.4337 16.0066C9.56723 16.0066 9.04102 15.4646 9.04102 14.6346C9.04102 13.7365 9.66931 13.1981 10.4993 13.1981C10.7254 13.1909 10.9505 13.2324 11.1592 13.3196L11.0535 13.717C10.8844 13.6454 10.7024 13.6095 10.5188 13.6113C9.96462 13.6113 9.56359 13.9601 9.56359 14.6151C9.56359 15.2142 9.91237 15.5946 10.5151 15.5946C10.7002 15.5959 10.884 15.5629 11.0571 15.4974L11.1422 15.8851Z" fill="#9E9E9E"/>
<path d="M12.0217 13.2422V14.833C12.0217 15.3677 12.2441 15.6144 12.5807 15.6144C12.9453 15.6144 13.1555 15.3713 13.1555 14.833V13.2422H13.6489V14.8002C13.6489 15.6424 13.215 16.0154 12.5552 16.0154C11.9232 16.0154 11.5137 15.663 11.5137 14.8002V13.2422H12.0217Z" fill="#9E9E9E"/>
<path d="M14.1826 13.2797C14.4315 13.2372 14.6836 13.2169 14.9361 13.2189C15.3286 13.2189 15.5911 13.2845 15.7782 13.4376C15.8559 13.5061 15.9173 13.5911 15.9579 13.6863C15.9985 13.7816 16.0172 13.8847 16.0128 13.9882C16.0121 14.1396 15.9636 14.287 15.8741 14.4093C15.7846 14.5315 15.6587 14.6223 15.5145 14.6687V14.6809C15.7126 14.7538 15.8305 14.9433 15.8949 15.2071C15.952 15.4645 16.0238 15.7185 16.11 15.9678H15.5996C15.5185 15.7594 15.4575 15.5437 15.4173 15.3237C15.3371 14.9677 15.2107 14.8546 14.9312 14.8461H14.6809V15.9678H14.1826V13.2797ZM14.6772 14.4828H14.9725C15.3079 14.4828 15.5145 14.3041 15.5145 14.0331C15.5145 13.7378 15.3079 13.5956 14.9847 13.5956C14.8816 13.5926 14.7785 13.6008 14.6772 13.6199V14.4828Z" fill="#9E9E9E"/>
<path d="M17.9731 14.7564H16.945V15.5585H18.0947V15.9668H16.4443V13.2422H18.0302V13.6505H16.9365V14.3554H17.9646L17.9731 14.7564Z" fill="#9E9E9E"/>
</g>
<defs>
<clipPath id="clip0_1916_498">
<rect width="23" height="21" fill="white"/>
</clipPath>
</defs>
</svg>
