<svg width="34" height="20" viewBox="0 0 34 20" fill="none" xmlns="http://www.w3.org/2000/svg">
<path fill-rule="evenodd" clip-rule="evenodd" d="M11.864 13.9485L13.2819 5.15265H15.5484L14.1307 13.9485H11.864Z" fill="white"/>
<path fill-rule="evenodd" clip-rule="evenodd" d="M22.3517 5.36904C21.9036 5.19251 21.1988 5 20.3208 5C18.08 5 16.5026 6.19364 16.4896 7.9028C16.4753 9.1672 17.6152 9.87227 18.4745 10.2925C19.3577 10.7232 19.6544 10.9988 19.6509 11.384C19.6448 11.9731 18.946 12.2431 18.2942 12.2431C17.3869 12.2431 16.9048 12.1101 16.1594 11.7817L15.8678 11.6417L15.5509 13.6107C16.0794 13.8556 17.0592 14.0683 18.076 14.0795C20.4574 14.0795 22.0048 12.9001 22.0229 11.0749C22.0312 10.0724 21.4272 9.31254 20.1192 8.68507C19.3272 8.2772 18.841 8.00707 18.8466 7.59427C18.8472 7.22867 19.2573 6.83729 20.145 6.83729C20.8864 6.82533 21.423 6.99653 21.8412 7.17533L22.0448 7.27587L22.3517 5.36904Z" fill="white"/>
<path fill-rule="evenodd" clip-rule="evenodd" d="M25.3696 10.8304C25.5575 10.3248 26.2724 8.37187 26.2724 8.37187C26.2592 8.39507 26.4592 7.8624 26.5737 7.53267L26.7267 8.29134C26.7267 8.29134 27.1616 10.3907 27.2512 10.8304C26.8983 10.8304 25.8121 10.8304 25.3696 10.8304ZM28.1657 5.16211H26.4141C25.8709 5.16211 25.4643 5.31772 25.2263 5.89123L21.8604 13.9521H24.2409C24.2409 13.9521 24.6293 12.8677 24.7175 12.6297C24.9771 12.6297 27.2903 12.6343 27.6204 12.6343C27.6883 12.9412 27.8964 13.9521 27.8964 13.9521H30L28.1657 5.16211Z" fill="white"/>
<path fill-rule="evenodd" clip-rule="evenodd" d="M9.96264 5.16046L7.74428 11.1572L7.50668 9.93812C7.09328 8.53372 5.80645 7.01145 4.36703 6.24862L6.39652 13.9412L8.7952 13.9399L12.3644 5.16046H9.96264Z" fill="white"/>
<path fill-rule="evenodd" clip-rule="evenodd" d="M5.68499 5.1546H2.03008L2 5.33686C4.84395 6.06546 6.72565 7.82412 7.50667 9.93826L6.71243 5.89672C6.57541 5.33932 6.17719 5.1741 5.68499 5.1546Z" fill="white"/>
</svg>
