<svg width="52" height="20" viewBox="0 0 52 20" fill="none" xmlns="http://www.w3.org/2000/svg">
<g clip-path="url(#clip0_3726_1246)">
<g clip-path="url(#clip1_3726_1246)">
<path d="M23.684 17.957C23.925 17.957 24.114 17.957 24.425 17.817C25.494 17.252 29.105 8.357 32.915 5.617C32.9422 5.59819 32.9656 5.57444 32.984 5.547C32.9989 5.52693 33.0076 5.50295 33.009 5.478C33.009 5.478 33.009 5.296 32.449 5.296C29.062 5.2 25.537 12.374 23.684 15.209C23.658 15.243 23.538 15.209 23.538 15.209C23.538 15.209 22.296 13.73 21.219 13.165C21.193 13.157 21.073 13.113 20.943 13.122C20.857 13.122 20.357 13.226 20.124 13.47C19.849 13.765 19.857 13.93 19.857 14.287C19.857 14.313 19.875 14.435 19.909 14.496C20.176 14.966 21.374 16.635 22.365 17.556C22.512 17.67 22.745 17.956 23.684 17.956V17.957Z" fill="white"/>
<path fill-rule="evenodd" clip-rule="evenodd" d="M29.958 12.583L28.261 13.122C28.597 12.522 29.001 11.861 29.407 11.348L29.958 12.583ZM24.356 0L27.683 7.478C27.305 7.999 26.172 9.578 25.106 11.125V6.161H22.089V12.807C21.673 12.522 21.235 12.322 20.814 12.251V11.918C20.814 11.892 20.797 11.883 20.779 11.9C20.779 11.9 20.452 12.161 19.021 12.309C18.616 12.352 18.418 12.335 18.271 12.309C16.237 11.961 16.142 10.466 16.142 10.466C16.142 10.451 16.14 10.432 16.137 10.414L16.134 10.379V9.805C16.134 9.778 16.134 9.735 16.142 9.718C16.142 9.718 16.28 8.108 18.272 7.935H19.022C19.892 8.048 20.598 8.483 20.598 8.483C20.624 8.492 20.641 8.483 20.641 8.457V6.439C20.641 6.413 20.624 6.387 20.598 6.369C20.598 6.369 20.202 6.109 18.995 6.039C18.935 6.005 17.875 5.996 17.59 6.039C13.195 6.396 13.031 9.605 13.031 9.744V10.526C13.031 10.622 13.031 13.9 17.591 14.187C17.956 14.216 18.603 14.197 18.876 14.19L18.996 14.187H19.01C19.106 14.725 19.37 15.302 19.737 15.835L6.748 19.965L0 1.391L24.356 0ZM25.442 3.648C25.442 4.622 24.614 5.404 23.597 5.404C22.58 5.404 21.753 4.613 21.753 3.648C21.753 2.674 22.58 1.891 23.597 1.891C24.614 1.891 25.442 2.674 25.442 3.648ZM4.654 14.09C4.654 14.116 4.671 14.133 4.697 14.133H7.636C7.662 14.133 7.679 14.116 7.679 14.09V11.777C7.679 11.751 7.696 11.733 7.722 11.733C7.722 11.733 12.419 12.073 12.419 8.899C12.419 6.386 9.471 6.116 8.506 6.159H4.696C4.671 6.159 4.654 6.177 4.654 6.203V14.09ZM7.627 9.968V7.891H8.351C8.351 7.891 9.394 7.934 9.481 8.656C9.497 8.708 9.497 9.065 9.481 9.082C9.342 9.926 8.437 9.969 8.437 9.969L7.627 9.968ZM36.035 11.165C36.035 10.851 36.121 10.608 36.293 10.434C36.466 10.26 36.707 10.174 37.017 10.174C37.336 10.174 37.577 10.26 37.75 10.425C37.922 10.599 38.008 10.834 38.008 11.147C38.008 11.373 37.974 11.556 37.896 11.695C37.8219 11.8348 37.7081 11.9496 37.569 12.025C37.407 12.11 37.2259 12.152 37.043 12.147C36.828 12.147 36.655 12.112 36.509 12.043C36.3644 11.9688 36.2445 11.8542 36.164 11.713C36.069 11.556 36.034 11.391 36.034 11.164L36.035 11.165ZM36.621 11.165C36.621 11.355 36.655 11.495 36.724 11.582C36.794 11.669 36.888 11.712 37.017 11.712C37.147 11.712 37.241 11.669 37.31 11.591C37.38 11.504 37.414 11.356 37.414 11.147C37.414 10.965 37.379 10.834 37.302 10.756C37.232 10.669 37.129 10.634 37.008 10.634C36.9538 10.6316 36.8997 10.6422 36.8503 10.6648C36.801 10.6874 36.7577 10.7214 36.724 10.764C36.655 10.834 36.621 10.974 36.621 11.164V11.165ZM35.311 11.338L35.828 11.494C35.8019 11.6269 35.7458 11.7521 35.664 11.86C35.5929 11.9556 35.4977 12.0305 35.388 12.077C35.2547 12.1335 35.1107 12.1601 34.966 12.155C34.759 12.155 34.596 12.129 34.457 12.068C34.3152 11.9968 34.1981 11.8846 34.121 11.746C34.0182 11.5697 33.9676 11.3679 33.975 11.164C33.975 10.851 34.061 10.607 34.225 10.434C34.388 10.26 34.63 10.181 34.931 10.181C35.173 10.181 35.354 10.234 35.491 10.329C35.6417 10.4394 35.7486 10.5995 35.793 10.781L35.276 10.894C35.2666 10.8465 35.246 10.802 35.216 10.764C35.1845 10.7206 35.1434 10.685 35.096 10.66C35.0476 10.6359 34.9941 10.6239 34.94 10.625C34.8794 10.6223 34.8192 10.6362 34.766 10.6653C34.7127 10.6944 34.6685 10.7375 34.638 10.79C34.587 10.868 34.561 10.999 34.561 11.164C34.561 11.373 34.595 11.52 34.656 11.599C34.716 11.677 34.811 11.72 34.923 11.72C35.035 11.72 35.121 11.686 35.173 11.625C35.2442 11.5436 35.2919 11.4444 35.311 11.338ZM39.077 10.208H38.292V12.12H38.775V10.66L39.145 12.12H39.577L39.947 10.66V12.12H40.43V10.207H39.663L39.37 11.373L39.077 10.207V10.208ZM40.809 10.208H41.783C41.999 10.208 42.153 10.26 42.257 10.364C42.361 10.468 42.412 10.607 42.412 10.799C42.412 10.989 42.352 11.147 42.24 11.251C42.128 11.364 41.947 11.416 41.714 11.416H41.395V12.129H40.809V10.207V10.208ZM41.404 11.025H41.542C41.654 11.025 41.732 11.007 41.783 10.964C41.826 10.92 41.853 10.877 41.853 10.816C41.8541 10.7872 41.8492 10.7585 41.8387 10.7317C41.8282 10.7048 41.8123 10.6804 41.792 10.66C41.749 10.616 41.68 10.599 41.568 10.599H41.404V11.025ZM43.309 10.207H42.723V12.12H44.223V11.65H43.309V10.207ZM44.515 10.207H45.101V12.12H44.515V10.207ZM46.024 11.799H46.687L46.791 12.112H47.403L46.687 10.199H46.05L45.334 12.112H45.929L46.024 11.799ZM46.36 10.703L46.567 11.391H46.153L46.36 10.703ZM47.584 10.207H48.126L48.842 11.268V10.208H49.393V12.12H48.842L48.135 11.068V12.12H47.584V10.207ZM51.436 10.207H49.661V10.677H50.255V12.12H50.841V10.677H51.436V10.207ZM36.733 2.931H33.914V9.121H36.733C37.069 9.121 37.448 9.07 37.862 8.957C38.163 8.87 38.448 8.704 38.715 8.461C38.9869 8.20297 39.1986 7.88817 39.335 7.539C39.482 7.174 39.559 6.661 39.559 6C39.559 5.574 39.508 5.174 39.404 4.8C39.3144 4.43958 39.1502 4.10197 38.922 3.809C38.6982 3.52548 38.408 3.30154 38.077 3.157C37.741 3.009 37.293 2.931 36.733 2.931ZM35.81 7.713V4.33H36.284C36.784 4.33 37.129 4.452 37.344 4.696C37.56 4.939 37.664 5.383 37.664 6.044C37.664 6.539 37.612 6.904 37.517 7.122C37.4407 7.31591 37.3007 7.47812 37.12 7.582C36.957 7.67 36.672 7.713 36.276 7.713H35.81ZM40.085 7.078L41.895 6.965C41.938 7.261 42.015 7.487 42.136 7.643C42.335 7.896 42.61 8.017 42.972 8.017C43.24 8.017 43.455 7.957 43.602 7.827C43.748 7.696 43.826 7.547 43.826 7.383C43.8239 7.30005 43.8043 7.21846 43.7687 7.14353C43.733 7.0686 43.682 7.00199 43.619 6.948C43.481 6.818 43.154 6.704 42.645 6.591C41.809 6.4 41.223 6.148 40.861 5.835C40.499 5.522 40.327 5.122 40.327 4.635C40.327 4.313 40.421 4.017 40.602 3.73C40.783 3.443 41.059 3.226 41.43 3.06C41.8 2.896 42.3 2.817 42.938 2.817C43.722 2.817 44.326 2.965 44.731 3.261C45.144 3.557 45.386 4.026 45.463 4.67L43.671 4.774C43.619 4.496 43.524 4.296 43.369 4.165C43.214 4.035 43.007 3.974 42.739 3.974C42.516 3.974 42.352 4.017 42.239 4.113C42.1869 4.15455 42.1451 4.20757 42.1168 4.26793C42.0885 4.32829 42.0746 4.39436 42.076 4.461C42.076 4.557 42.119 4.652 42.214 4.731C42.3 4.809 42.516 4.887 42.852 4.957C43.679 5.139 44.274 5.322 44.636 5.504C44.998 5.687 45.256 5.922 45.42 6.191C45.584 6.461 45.661 6.774 45.661 7.113C45.661 7.513 45.55 7.878 45.334 8.209C45.118 8.548 44.808 8.8 44.42 8.974C44.033 9.148 43.533 9.234 42.938 9.234C41.895 9.234 41.171 9.034 40.766 8.626C40.37 8.217 40.145 7.704 40.085 7.078ZM47.955 6.965L46.145 7.078C46.195 7.704 46.42 8.218 46.825 8.626C47.23 9.035 47.955 9.235 48.997 9.235C49.592 9.235 50.092 9.148 50.479 8.974C50.845 8.81874 51.1575 8.55984 51.3782 8.22918C51.5989 7.89851 51.718 7.51053 51.721 7.113C51.721 6.773 51.643 6.461 51.479 6.191C51.315 5.921 51.057 5.687 50.695 5.504C50.333 5.322 49.738 5.139 48.911 4.957C48.575 4.887 48.359 4.809 48.273 4.73C48.2311 4.69837 48.1968 4.65764 48.1729 4.61087C48.149 4.5641 48.1361 4.51251 48.135 4.46C48.135 4.322 48.187 4.209 48.299 4.113C48.411 4.017 48.575 3.973 48.799 3.973C49.066 3.973 49.273 4.035 49.428 4.165C49.583 4.295 49.678 4.495 49.73 4.774L51.522 4.67C51.445 4.026 51.203 3.557 50.79 3.26C50.385 2.965 49.781 2.817 48.997 2.817C48.359 2.817 47.859 2.896 47.489 3.061C47.119 3.226 46.842 3.443 46.661 3.731C46.4833 3.99922 46.3875 4.31329 46.385 4.635C46.385 5.122 46.566 5.522 46.92 5.835C47.282 6.148 47.868 6.4 48.704 6.591C49.212 6.704 49.54 6.817 49.678 6.948C49.816 7.078 49.885 7.226 49.885 7.383C49.885 7.548 49.807 7.696 49.661 7.826C49.514 7.956 49.299 8.017 49.031 8.017C48.67 8.017 48.394 7.896 48.195 7.643C48.075 7.487 47.997 7.261 47.955 6.965Z" fill="white"/>
</g>
</g>
<defs>
<clipPath id="clip0_3726_1246">
<rect width="52" height="20" fill="white"/>
</clipPath>
<clipPath id="clip1_3726_1246">
<rect width="52" height="20" fill="white"/>
</clipPath>
</defs>
</svg>
