<svg width="34" height="20" viewBox="0 0 34 20" fill="none" xmlns="http://www.w3.org/2000/svg">
<path d="M29.757 14.7835V14.4802H29.6778L29.5869 14.689L29.4969 14.4802H29.4177V14.7835H29.4735V14.5549L29.5581 14.7529H29.6166L29.7012 14.5549V14.7835H29.757ZM29.2575 14.7835V14.5315H29.3583V14.4811H29.1V14.5324H29.2017V14.7844H29.2566L29.2575 14.7835Z" fill="#F79410"/>
<path d="M20.8083 16.0858H13.9953V3.79181H20.8083V16.0858Z" fill="#FF5F00"/>
<path d="M14.4273 9.93702C14.4257 8.75422 14.6925 7.58648 15.2075 6.52172C15.7226 5.45697 16.4725 4.52295 17.4009 3.79002C16.0318 2.70556 14.336 2.11649 12.5895 2.11872C8.28929 2.11872 4.80359 5.61972 4.80359 9.93792C4.80359 14.2561 8.28929 17.7571 12.5886 17.7571C14.3354 17.7596 16.0316 17.1705 17.4009 16.0858C16.4724 15.3528 15.7224 14.4186 15.2073 13.3537C14.6923 12.2888 14.4255 11.12 14.4273 9.93702Z" fill="#EB001B"/>
<path d="M30 9.9379C30 14.257 26.5143 17.758 22.215 17.758C20.4678 17.7602 18.7713 17.1708 17.4018 16.0858C18.3304 15.353 19.0805 14.419 19.5957 13.3543C20.111 12.2895 20.3779 11.1217 20.3763 9.9388C20.3781 8.75562 20.1114 7.58745 19.5961 6.52235C19.0809 5.45724 18.3306 4.52299 17.4018 3.79C18.771 2.70515 20.4672 2.11576 22.2141 2.1178C26.5143 2.1178 30 5.6197 30 9.9379Z" fill="#F79E1B"/>
</svg>
