<svg width="84" height="15" viewBox="0 0 84 15" fill="none" xmlns="http://www.w3.org/2000/svg">
<g clip-path="url(#clip0_1916_507)">
<path d="M8.64408 7.67064C8.64311 6.5963 8.88309 5.53582 9.34584 4.56947C9.80859 3.60314 10.4821 2.75626 11.3152 2.09297C10.2835 1.27034 9.04447 0.758752 7.73974 0.616691C6.43501 0.474629 5.1172 0.707818 3.93693 1.28961C2.75667 1.87141 1.76157 2.77834 1.06538 3.90674C0.369195 5.03513 0 6.33946 0 7.67064C0 9.00183 0.369195 10.3061 1.06538 11.4345C1.76157 12.5629 2.75667 13.4698 3.93693 14.0516C5.1172 14.6335 6.43501 14.8666 7.73974 14.7246C9.04447 14.5826 10.2835 14.071 11.3152 13.2483C10.4821 12.585 9.80868 11.7382 9.34584 10.7718C8.8831 9.80543 8.64312 8.74499 8.64408 7.67064Z" fill="#9E9E9E" fill-opacity="0.51"/>
<path d="M22.6293 7.67065C22.6293 9.00181 22.2602 10.3061 21.564 11.4345C20.8679 12.5629 19.8728 13.4698 18.6925 14.0516C17.5123 14.6335 16.1946 14.8667 14.8899 14.7246C13.5852 14.5826 12.3462 14.071 11.3145 13.2483C12.1469 12.5844 12.8197 11.7373 13.2825 10.7711C13.7451 9.80496 13.9856 8.74482 13.9856 7.67065C13.9856 6.59648 13.7451 5.53633 13.2825 4.57014C12.8197 3.60394 12.1469 2.75694 11.3145 2.09297C12.3462 1.27034 13.5852 0.758748 14.8899 0.616689C16.1946 0.474629 17.5123 0.707828 18.6925 1.28963C19.8728 1.87143 20.8679 2.77837 21.564 3.90676C22.2602 5.03516 22.6293 6.33948 22.6293 7.67065Z" fill="#9E9E9E" fill-opacity="0.32"/>
<path d="M11.3155 2.0918C10.4825 2.75508 9.80905 3.60194 9.3463 4.56827C8.88355 5.53462 8.64356 6.5951 8.64453 7.66943C8.64357 8.74377 8.88356 9.80425 9.3463 10.7706C9.80914 11.7369 10.4825 12.5838 11.3155 13.247C12.1479 12.5831 12.8208 11.7362 13.2835 10.77C13.7462 9.80378 13.9866 8.74361 13.9866 7.66944C13.9866 6.59527 13.7462 5.53512 13.2835 4.56892C12.8208 3.60276 12.1479 2.75575 11.3155 2.0918Z" fill="#9E9E9E" fill-opacity="0.87"/>
<path d="M21.9626 12.0664V11.838H22.0535V11.7915H21.8223V11.838H21.9131V12.0664H21.9626ZM22.4115 12.0664V11.791H22.3406L22.2591 11.9804L22.1776 11.791H22.1067V12.0664H22.1567V11.8587L22.2331 12.0378H22.285L22.3615 11.8582V12.0664H22.4115Z" fill="#9E9E9E" fill-opacity="0.24"/>
<path d="M29.753 14.805H29.4941V12.4112V7.62318V2.8352V0.441406H29.753V5.22919V10.0172V14.805Z" fill="#9E9E9E"/>
<path d="M36.9201 12.0659H36.1934V3.60509H36.9201V12.0659ZM42.2221 3.60509C42.8596 3.59585 43.4941 3.69595 44.0987 3.90118C44.6242 4.08028 45.1071 4.36843 45.5166 4.74728C45.9093 5.11904 46.2163 5.574 46.416 6.07981C46.8372 7.21123 46.8372 8.45963 46.416 9.59108C46.2163 10.0969 45.9093 10.5519 45.5166 10.9236C45.1071 11.3026 44.6242 11.5907 44.0987 11.7698C43.4941 11.975 42.8596 12.0752 42.2221 12.0659H39.1779V3.60509H42.2221ZM39.9047 4.30609V11.3648H42.2221C42.7685 11.3747 43.3125 11.2898 43.8306 11.114C44.2669 10.9641 44.6669 10.7221 45.0042 10.404C45.3246 10.0936 45.5711 9.71333 45.7251 9.2919C46.0507 8.349 46.0507 7.32187 45.7251 6.37898C45.5706 5.95696 45.3242 5.57582 45.0042 5.26402C44.6679 4.94448 44.2676 4.70227 43.8306 4.55388C43.312 4.38015 42.7682 4.29638 42.2221 4.3061L39.9047 4.30609ZM55.1792 3.50839C55.5283 3.50741 55.8762 3.54797 56.216 3.62924C56.5412 3.70675 56.8561 3.82341 57.1541 3.97672C57.4402 4.12381 57.7066 4.30763 57.9465 4.52365C58.1809 4.73508 58.3845 4.97928 58.5511 5.2489L57.9435 5.65979C57.8006 5.43831 57.6293 5.23713 57.4341 5.06156C57.2369 4.88387 57.0187 4.7316 56.7847 4.60824C56.5431 4.48136 56.287 4.38496 56.0223 4.3212C55.7461 4.25425 55.4631 4.22078 55.1792 4.22152C54.7054 4.2173 54.2352 4.3055 53.7942 4.48133C53.3773 4.6479 52.9984 4.89878 52.6802 5.2187C52.3592 5.54505 52.1059 5.93346 51.9356 6.36088C51.5741 7.30975 51.5741 8.36121 51.9356 9.31008C52.1059 9.73751 52.3592 10.1259 52.6802 10.4523C52.9983 10.7722 53.3773 11.023 53.7942 11.1895C54.2352 11.3655 54.7054 11.4537 55.1792 11.4495C55.4619 11.4502 55.7439 11.4178 56.0192 11.3527C56.2832 11.2907 56.5383 11.1952 56.7789 11.0687C57.0129 10.9454 57.2311 10.7932 57.4282 10.6155C57.6245 10.4386 57.7958 10.2352 57.9376 10.0111L58.5333 10.4523C58.3598 10.7166 58.1524 10.9565 57.9167 11.1654C57.6775 11.3769 57.4133 11.5576 57.1304 11.7033C56.8363 11.8546 56.5253 11.9692 56.204 12.0447C55.2978 12.254 54.3507 12.1835 53.4844 11.8422C52.9786 11.6396 52.5178 11.3365 52.1291 10.9508C51.7423 10.5617 51.4373 10.097 51.2325 9.58498C50.7997 8.461 50.7997 7.21296 51.2325 6.08896C51.4368 5.57573 51.7418 5.10999 52.1291 4.72006C52.5178 4.33438 52.9786 4.03133 53.4844 3.82863C54.0237 3.61191 54.5992 3.50317 55.1792 3.50839ZM60.7851 7.36403C60.8915 7.18465 61.023 7.02183 61.1753 6.88059C61.3207 6.74609 61.4842 6.63316 61.6608 6.54515C61.8352 6.45867 62.0192 6.39377 62.2088 6.35183C62.3967 6.3098 62.5885 6.28851 62.7808 6.28832C63.1073 6.28449 63.4319 6.33869 63.7399 6.44843C64.0171 6.54746 64.2716 6.70271 64.4876 6.90473C64.6989 7.10646 64.8638 7.35306 64.9703 7.6269C65.0868 7.93011 65.1445 8.25334 65.14 8.57876V12.0659H64.4609V8.79036C64.4645 8.52751 64.4242 8.26593 64.3418 8.01671C64.2689 7.79817 64.1488 7.59893 63.9902 7.43358C63.8302 7.27115 63.6371 7.14633 63.4243 7.06793C63.1797 6.97955 62.9213 6.93656 62.6617 6.94102C62.4102 6.93902 62.1606 6.98514 61.926 7.07698C61.7037 7.16369 61.501 7.29529 61.3303 7.4638C61.1592 7.63417 61.0235 7.83758 60.9312 8.06203C60.8317 8.30413 60.782 8.56428 60.7851 8.82654V12.0659H60.1059V3.36328H60.7851V7.36403ZM69.1791 6.28833C69.5366 6.28508 69.8907 6.3582 70.2185 6.5029C70.5326 6.64178 70.8145 6.84552 71.0466 7.10114C71.2862 7.36903 71.4733 7.68082 71.5977 8.0198C71.7359 8.39373 71.8066 8.78987 71.8062 9.18922C71.8062 9.24157 71.8052 9.29103 71.8034 9.33722C71.8012 9.38361 71.7983 9.42898 71.7944 9.47333H67.0941C67.1115 9.77857 67.1853 10.0778 67.3114 10.3555C67.4253 10.6036 67.5863 10.8263 67.7851 11.0112C67.9798 11.1906 68.2075 11.3293 68.4551 11.4192C68.7141 11.513 68.9874 11.5601 69.2624 11.5581C69.6254 11.5646 69.9853 11.4903 70.317 11.3406C70.6288 11.1943 70.913 10.9939 71.1569 10.7483L71.5203 11.2198C71.3549 11.39 71.1723 11.5419 70.9752 11.6731C70.7975 11.7904 70.6077 11.8876 70.4092 11.963C70.2196 12.0349 70.0229 12.0856 69.8224 12.1142C69.6231 12.1424 69.4221 12.1565 69.2209 12.1565C68.8333 12.1607 68.4488 12.0877 68.0888 11.942C67.7535 11.8058 67.4494 11.6011 67.1953 11.3406C66.9407 11.0759 66.742 10.7613 66.6114 10.416C66.4685 10.036 66.3978 9.63204 66.4029 9.22539C66.3987 8.82152 66.4706 8.42055 66.6144 8.04395C66.7465 7.69763 66.9449 7.3813 67.1981 7.11326C67.4483 6.85204 67.7483 6.64537 68.0799 6.50589C68.4282 6.35913 68.8021 6.28512 69.1791 6.28833ZM69.1672 6.89868C68.8989 6.89534 68.6328 6.94566 68.3836 7.04677C68.1523 7.14235 67.9411 7.28183 67.7612 7.45775C67.5792 7.63764 67.4308 7.84957 67.3234 8.08321C67.2074 8.33492 67.1339 8.6046 67.106 8.88101H71.1153C71.0954 8.60269 71.0288 8.32984 70.9186 8.07416C70.8184 7.84084 70.6759 7.62867 70.4986 7.4487C70.3235 7.27232 70.1156 7.13289 69.8872 7.03849C69.6586 6.94408 69.4139 6.89656 69.1672 6.89868ZM75.7141 6.28833C76.1113 6.28445 76.5053 6.3615 76.8728 6.51493C77.2207 6.66069 77.5314 6.88495 77.7813 7.1707L77.3404 7.63605C77.1287 7.41921 76.8792 7.24401 76.6047 7.11933C76.3181 6.99341 76.0084 6.93057 75.6961 6.93496C75.4026 6.93248 75.1117 6.99111 74.8414 7.1072C74.5828 7.21809 74.3489 7.38045 74.1532 7.58467C73.9554 7.7933 73.8004 8.03981 73.6974 8.30982C73.4791 8.90012 73.4791 9.55067 73.6974 10.141C73.7984 10.4086 73.9518 10.6525 74.1485 10.8582C74.3451 11.0639 74.5808 11.227 74.8414 11.3376C75.1117 11.4537 75.4026 11.5123 75.6961 11.5099C76.0132 11.5134 76.3272 11.4475 76.6167 11.3165C76.8917 11.1909 77.1428 11.0171 77.3582 10.8028L77.7813 11.2742C77.5292 11.5587 77.2177 11.7827 76.8697 11.9299C76.127 12.231 75.2987 12.2321 74.5552 11.9329C74.2147 11.7925 73.9061 11.5832 73.6479 11.3177C73.3899 11.0522 73.1878 10.7361 73.0541 10.3889C72.7721 9.63861 72.7721 8.80929 73.0541 8.05904C73.1871 7.71095 73.3888 7.39413 73.647 7.12807C73.9052 6.86201 74.2143 6.65233 74.5552 6.51194C74.923 6.35971 75.3169 6.28368 75.7141 6.28833ZM79.8245 8.77824H80.7359L83.0949 6.37897H83.9529L81.284 9.0623L84.0005 12.0659H83.1368L80.7359 9.40076H79.8245V12.0659H79.1453V3.36328H79.8245V8.77824Z" fill="#9E9E9E"/>
</g>
<defs>
<clipPath id="clip0_1916_507">
<rect width="84" height="15" fill="white"/>
</clipPath>
</defs>
</svg>
