<svg width="52" height="20" viewBox="0 0 52 20" fill="none" xmlns="http://www.w3.org/2000/svg">
<g clip-path="url(#clip0_2455_2404)">
<g clip-path="url(#clip1_2455_2404)">
<mask id="mask0_2455_2404" style="mask-type:luminance" maskUnits="userSpaceOnUse" x="0" y="0" width="52" height="20">
<path d="M0 0H52V20H0V0Z" fill="white"/>
</mask>
<g mask="url(#mask0_2455_2404)">
<path fill-rule="evenodd" clip-rule="evenodd" d="M35.15 1.24501L34.884 2.98001C34.306 2.67101 33.876 2.55301 33.417 2.55301C32.202 2.55301 31.342 3.78801 31.342 5.53801C31.342 6.74401 31.92 7.47801 32.869 7.47801C33.269 7.47801 33.713 7.34601 34.262 7.06701L33.98 8.89001C33.372 9.06601 32.987 9.12501 32.528 9.12501C30.764 9.12501 29.668 7.80201 29.668 5.68501C29.668 2.83301 31.179 0.833008 33.358 0.833008C33.639 0.833008 33.891 0.863008 34.098 0.921008L34.78 1.09801C34.896 1.14601 34.955 1.16801 35.023 1.19501L35.15 1.24501ZM49.155 8.02301C49.155 7.46301 49.599 7.00801 50.133 7.00801C50.681 7.00801 51.111 7.46401 51.111 8.02301C51.111 8.58101 50.681 9.03701 50.133 9.03701C49.599 9.05201 49.155 8.59601 49.155 8.02301ZM50.133 8.81601C50.548 8.81601 50.874 8.46301 50.874 8.03701C50.874 7.61101 50.534 7.25801 50.133 7.25801C49.718 7.25801 49.392 7.61101 49.392 8.03801C49.392 8.46301 49.718 8.81601 50.133 8.81601ZM49.999 8.47801H49.792V7.58201H50.162C50.237 7.58201 50.326 7.58201 50.385 7.62601C50.459 7.67001 50.489 7.75801 50.489 7.84601C50.489 7.94901 50.429 8.03701 50.34 8.06601L50.503 8.46301H50.281L50.148 8.11101H49.999V8.47801ZM49.999 7.97801H50.119C50.163 7.97801 50.207 7.97801 50.237 7.96401C50.267 7.94901 50.281 7.90401 50.281 7.86101C50.281 7.83101 50.266 7.78701 50.237 7.77301C50.207 7.75801 50.147 7.75801 50.118 7.75801H50.014L49.999 7.97801ZM29.55 2.42201C29.61 2.42201 29.669 2.42201 29.713 2.43701L29.773 2.45101C29.491 2.98101 29.298 3.55401 29.15 4.33301H29.031C28.246 4.33301 28.098 5.00901 27.505 8.97901H25.86L26.868 2.49501H28.35L28.202 3.48001C28.706 2.70101 29.017 2.42201 29.55 2.42201ZM19.918 8.89201C19.473 9.03801 19.118 9.11201 18.747 9.11201C17.917 9.11201 17.457 8.61201 17.457 7.68601C17.457 7.50901 17.473 7.30301 17.502 7.09801L17.606 6.46501L17.68 5.95101L18.391 1.52501H20.021L19.829 2.48101H20.674L20.436 4.05401H19.606L19.176 6.75901L19.165 6.85101C19.155 6.92401 19.147 6.98101 19.147 7.02401C19.147 7.36201 19.325 7.50901 19.71 7.50901C19.903 7.50901 20.036 7.49501 20.155 7.45001L19.918 8.89101V8.89201ZM14.7 6.34601C13.841 5.91901 13.456 5.36101 13.456 4.53701C13.441 3.33201 14.078 2.34701 15.931 2.34701C16.301 2.34701 16.938 2.40601 17.368 2.47901L17.131 3.97901C16.7433 3.91933 16.3521 3.88492 15.96 3.87601C15.427 3.87601 15.16 4.05201 15.16 4.40601C15.16 4.71401 15.234 4.78701 15.916 5.11101C16.746 5.50801 17.072 6.03701 17.072 6.91901C17.072 8.38901 16.272 9.08001 14.552 9.08001C14.392 9.08001 14.169 9.06301 13.897 9.04001C13.814 9.03353 13.731 9.02719 13.648 9.02101C13.5364 9.01193 13.4253 8.99758 13.315 8.97801C13.2831 8.97261 13.2511 8.96761 13.219 8.96301L12.922 8.90401L12.848 8.88901L13.07 7.38901C13.604 7.58101 14.048 7.65401 14.537 7.65401C15.175 7.65401 15.471 7.46301 15.471 7.06601C15.471 6.77201 15.352 6.66901 14.701 6.34601H14.7ZM48.206 8.96301H46.65L46.724 8.33101C46.28 8.83101 45.806 9.05101 45.213 9.05101C44.013 9.05101 43.227 7.97801 43.227 6.36101C43.227 4.19901 44.443 2.37701 45.895 2.37701C46.532 2.37701 47.006 2.65601 47.465 3.25801L47.821 0.980008H49.437L48.206 8.96301ZM45.791 7.45001C46.561 7.45001 47.095 6.55301 47.095 5.25901C47.095 4.43601 46.784 3.97901 46.221 3.97901C45.48 3.97901 44.946 4.89201 44.946 6.15601C44.946 7.00801 45.228 7.45001 45.791 7.45001ZM23.414 9.09601C24.007 9.09601 24.54 9.00801 25.104 8.83101L25.355 7.22901C24.763 7.50901 24.229 7.64101 23.651 7.64101C22.703 7.64101 22.214 7.25801 22.214 6.49401C22.214 6.43501 22.214 6.39101 22.229 6.28801H25.489C25.637 5.62601 25.696 5.15601 25.696 4.68501C25.696 3.24501 24.836 2.31901 23.488 2.31901C21.843 2.31901 20.628 3.95001 20.628 6.18501C20.628 8.09601 21.591 9.09601 23.414 9.09601ZM24.2 4.64001C24.2 4.71401 24.2 4.83101 24.185 4.96401H22.39C22.539 4.21401 22.91 3.80201 23.428 3.80201C23.917 3.80201 24.198 4.11101 24.198 4.64001H24.2ZM6.876 8.96401H5.246L6.18 2.83401L4.075 8.96401H2.964L2.83 2.87701L1.838 8.96401H0.309998L1.586 0.996008H3.942L4 5.93601L5.6 0.996008H8.15L6.876 8.96401ZM10.941 6.06701L11.099 6.08201C11.069 7.03801 10.581 7.69901 9.929 7.69901C9.573 7.69901 9.336 7.43501 9.336 7.03801C9.336 6.39101 9.796 6.05301 10.729 6.05301C10.805 6.05301 10.863 6.05901 10.941 6.06701ZM10.921 8.96401H12.285L12.3 8.80201L12.33 8.56601L12.374 8.24301L12.434 7.83201L12.759 5.52301C12.863 4.78801 12.892 4.55301 12.892 4.23001C12.892 2.99501 12.152 2.33301 10.744 2.33301C10.151 2.33301 9.603 2.43601 8.788 2.68601L8.566 4.14101L8.714 4.09701L8.921 4.02401C9.291 3.90601 9.825 3.83301 10.284 3.83301C11.055 3.83301 11.336 3.99401 11.336 4.42101C11.3317 4.56472 11.3119 4.70754 11.277 4.84701C11.0561 4.81913 10.8337 4.80443 10.611 4.80301C8.802 4.80301 7.736 5.71401 7.736 7.30301C7.736 8.34601 8.343 9.06701 9.232 9.06701C9.988 9.06701 10.536 8.83101 10.952 8.28701L10.922 8.96401H10.921ZM37.981 6.08201L37.851 6.06901C37.7714 6.05927 37.6912 6.05392 37.611 6.05301C36.677 6.05301 36.203 6.39101 36.203 7.03801C36.203 7.43501 36.44 7.69901 36.796 7.69901C37.462 7.69901 37.952 7.03801 37.981 6.08201ZM39.167 8.96401H37.803L37.833 8.28701C37.418 8.83101 36.87 9.06701 36.114 9.06701C35.224 9.06701 34.617 8.34701 34.617 7.30201C34.617 5.71401 35.684 4.80301 37.492 4.80301C37.67 4.80301 37.922 4.81801 38.159 4.84701C38.1943 4.70758 38.2144 4.56475 38.219 4.42101C38.219 3.99401 37.937 3.83301 37.166 3.83301C36.706 3.83301 36.173 3.90601 35.803 4.02301L35.566 4.08301L35.417 4.12701L35.64 2.67101C36.455 2.42101 37.003 2.31901 37.596 2.31901C39.004 2.31901 39.745 2.98001 39.745 4.21501C39.745 4.53801 39.715 4.77401 39.611 5.50901L39.271 7.80201L39.226 8.21401L39.182 8.53701L39.152 8.75701L39.167 8.96401ZM43.583 2.42101C43.643 2.42101 43.701 2.42101 43.746 2.43601L43.806 2.45001C43.5082 3.04381 43.2983 3.67778 43.183 4.33201H43.064C42.279 4.33201 42.13 5.00801 41.538 8.97801H39.893L40.901 2.49401H42.383L42.234 3.47901C42.738 2.70001 43.049 2.42101 43.583 2.42101Z" fill="#FD0C15"/>
<path fill-rule="evenodd" clip-rule="evenodd" d="M3.483 12.344C4.046 12.344 4.46 12.506 4.757 12.712L5.157 11.109C4.772 10.845 4.09 10.742 3.379 10.742C2.104 10.742 0.785 11.359 0.785 13.462C0.785 14.768 1.517 15.172 2.145 15.522C2.621 15.784 3.038 16.015 3.038 16.578C3.038 17.416 2.297 17.548 1.808 17.548C1.289 17.548 0.682 17.358 0.37 17.078L0 18.725C0.504 18.96 1.2 19.151 1.793 19.151C3.142 19.151 4.623 18.563 4.623 16.314C4.623 14.844 3.827 14.4 3.181 14.04C2.741 13.795 2.371 13.588 2.371 13.123C2.371 12.477 2.86 12.344 3.483 12.344ZM33.506 12.977L33.758 11.242C33.6372 11.1744 33.5072 11.1248 33.372 11.095L32.75 10.918C32.5283 10.855 32.2984 10.8254 32.068 10.83C30.038 10.83 28.616 12.83 28.616 15.682C28.616 17.799 29.653 19.122 31.298 19.122C31.728 19.122 32.098 19.063 32.661 18.887L32.928 17.064C32.424 17.344 32.009 17.475 31.624 17.475C30.734 17.475 30.201 16.74 30.201 15.535C30.201 13.785 31.001 12.55 32.143 12.55C32.573 12.55 32.958 12.668 33.506 12.977ZM35.684 17.608C36.41 17.608 36.87 16.741 36.87 15.271C36.87 14.594 36.662 13.962 36.055 13.962C35.314 13.962 34.839 15.138 34.839 16.167C34.839 17.035 35.151 17.623 35.684 17.608ZM36.144 12.374C37.67 12.374 38.485 13.654 38.485 15.285C38.485 17.99 37.255 19.167 35.58 19.167C33.92 19.167 33.24 17.829 33.24 16.197C33.24 13.918 34.38 12.374 36.144 12.374ZM23.636 12.418C23.592 12.404 23.533 12.404 23.473 12.404C22.97 12.404 22.688 12.684 22.213 13.462L22.362 12.477H20.984L20.05 18.961H21.576C22.125 14.991 22.273 14.315 22.999 14.315C23.044 14.315 23.044 14.315 23.118 14.33C23.251 13.55 23.444 12.977 23.696 12.448L23.636 12.418ZM42.16 18.902H43.612L44.768 10.933H43.257L42.916 13.213C42.501 12.595 42.042 12.315 41.449 12.315C40.1 12.315 38.959 14.139 38.959 16.3C38.959 17.917 39.7 18.99 40.812 18.99C41.375 18.99 41.819 18.77 42.234 18.27L42.16 18.902ZM42.56 15.182C42.56 16.476 42.071 17.372 41.345 17.372C40.826 17.372 40.56 16.946 40.56 16.094C40.56 14.814 41.049 13.918 41.745 13.918C42.279 13.918 42.56 14.358 42.56 15.182ZM9.292 18.872C8.78696 19.048 8.25584 19.1376 7.721 19.137C6.017 19.137 5.127 18.137 5.127 16.227C5.127 14.007 6.269 12.36 7.795 12.36C9.055 12.36 9.855 13.271 9.855 14.727C9.855 15.197 9.795 15.667 9.662 16.329H6.624C6.61309 16.3971 6.60807 16.466 6.609 16.535C6.609 17.285 7.069 17.667 7.958 17.667C8.506 17.667 8.995 17.535 9.543 17.255L9.292 18.872ZM8.44 14.8C8.443 14.755 8.446 14.715 8.446 14.684C8.446 14.154 8.179 13.846 7.72 13.846C7.23 13.846 6.89 14.257 6.742 15.007H8.432C8.432 14.931 8.436 14.861 8.44 14.8ZM25.918 19.138C26.466 19.138 26.97 19.05 27.488 18.873L27.74 17.257C27.192 17.536 26.703 17.668 26.155 17.668C25.265 17.668 24.806 17.286 24.806 16.536C24.806 16.477 24.806 16.433 24.821 16.33H27.859C27.992 15.669 28.052 15.198 28.052 14.728C28.052 13.272 27.236 12.361 25.977 12.361C24.45 12.361 23.309 14.008 23.309 16.227C23.309 18.139 24.199 19.138 25.918 19.138ZM26.644 14.684C26.644 14.757 26.644 14.874 26.629 15.007H24.939C25.088 14.257 25.429 13.846 25.918 13.846C26.377 13.846 26.644 14.154 26.644 14.684ZM48.828 18.874C48.3223 19.0473 47.7916 19.1365 47.257 19.138C45.553 19.138 44.649 18.138 44.649 16.228C44.649 14.008 45.789 12.361 47.331 12.361C48.591 12.361 49.391 13.272 49.391 14.728C49.391 15.198 49.331 15.668 49.198 16.33H46.16C46.146 16.433 46.146 16.477 46.146 16.536C46.146 17.286 46.605 17.668 47.494 17.668C48.042 17.668 48.532 17.536 49.08 17.256L48.828 18.873V18.874ZM47.978 14.8C47.98 14.755 47.983 14.715 47.983 14.684C47.983 14.154 47.716 13.846 47.257 13.846C46.767 13.846 46.427 14.257 46.279 15.007H47.969C47.969 14.931 47.974 14.861 47.978 14.8ZM13.766 18.873C13.455 19.021 13.025 19.123 12.402 19.123C11.069 19.123 10.239 17.8 10.239 16.183C10.239 14.066 11.439 12.39 13.203 12.39C13.588 12.39 14.181 12.552 14.64 12.817L14.3 14.36C13.974 14.14 13.633 14.008 13.277 14.008C12.462 14.008 11.869 14.758 11.869 16.08C11.869 16.845 12.299 17.477 12.966 17.477C13.366 17.477 13.647 17.389 13.988 17.197L13.766 18.873ZM19.472 17.347L19.486 17.242L20.212 12.493H18.626L18.167 15.463C18.048 16.419 17.649 17.227 16.982 17.227C16.537 17.257 16.359 16.874 16.359 16.492C16.359 16.219 16.398 15.956 16.436 15.695L16.463 15.507L16.908 12.493H15.263L14.848 15.493C14.758 16.169 14.729 16.404 14.729 16.845C14.729 18.095 15.233 19.065 16.151 19.065C16.996 19.065 17.471 18.58 17.93 17.875H17.945L17.826 18.918H19.293C19.335 18.381 19.403 17.868 19.472 17.347ZM50.354 18.844H50.102V17.77H49.747V17.535H50.71V17.77H50.354V18.844ZM51.762 18.844H52V17.535H51.644L51.437 18.565H51.422L51.215 17.535H50.845V18.844H51.081V17.756L51.303 18.844H51.541L51.763 17.756L51.762 18.844Z" fill="#F3AE12"/>
</g>
</g>
</g>
<defs>
<clipPath id="clip0_2455_2404">
<rect width="52" height="20" fill="white"/>
</clipPath>
<clipPath id="clip1_2455_2404">
<rect width="52" height="20" fill="white"/>
</clipPath>
</defs>
</svg>
