<svg width="200" height="200" viewBox="0 0 200 200" fill="none" xmlns="http://www.w3.org/2000/svg">
<path d="M86.0955 43.3922C85.1372 39.9604 81.5914 37.9297 78.3215 37.05C74.668 36.0722 70.8069 36.1969 67.224 37.4084C54.8059 41.7276 55.9167 57.4845 63.0294 68.606C62.5694 69.731 60.6777 75.3565 60.8818 76.1241C60.911 76.2327 60.9679 76.3319 61.0468 76.412C61.1257 76.4921 61.224 76.5505 61.3322 76.5813C61.4403 76.6122 61.5546 76.6146 61.6639 76.5882C61.7733 76.5618 61.8739 76.5076 61.9561 76.4308C62.2177 76.1682 64.3711 68.2303 64.3596 68.1968C63.1703 64.7563 61.1971 61.6475 60.3192 58.07C58.5243 50.7867 59.4567 42.9715 66.2523 39.6585C72.0828 36.8152 81.554 37.692 85.2771 43.8005C85.4333 44.3122 86.2517 43.9538 86.0955 43.3922Z" fill="#2B2B2B"/>
<path d="M119.287 113.766C119.767 114.108 126.445 118.52 126.755 118.726C128.34 118.215 134.12 116.272 135.449 115.811C132.943 114.226 130.487 112.589 128.136 110.901C126.822 111.308 120.207 113.417 119.287 113.766Z" fill="#2B2B2B"/>
<path d="M123.788 119.698C124.347 119.534 124.862 119.34 125.425 119.135C123.533 117.959 118.469 114.631 117.804 114.226C116.372 114.686 109.11 117.038 108.803 117.141C111.258 119.033 113.713 120.974 115.81 122.613C115.86 122.51 121.165 120.467 123.788 119.698Z" fill="#2B2B2B"/>
<path d="M151.303 115.862C146.34 113.38 146.32 113.164 146.189 113.254C145.882 113.407 138.618 115.913 138.211 116.066C138.517 116.272 145.985 120.363 146.035 120.413C147.976 119.79 149.872 119.039 151.713 118.163C153.438 117.118 151.661 116.016 151.303 115.862Z" fill="#2B2B2B"/>
<path d="M109.417 115.862C111.446 115.105 115.037 114.033 116.679 113.407C116.583 113.341 108.742 108.032 108.445 107.883C105.632 108.702 102.769 109.52 99.955 110.134C101.848 111.617 104.763 113.867 107.882 116.322C108.405 116.21 108.918 116.056 109.417 115.862Z" fill="#2B2B2B"/>
<path d="M126.652 119.903C125.783 120.158 119.338 122.562 116.679 123.226C119.237 125.221 120.713 126.406 121.231 126.806C122.632 127.892 131.868 125.081 133.812 124.506C132.636 123.84 126.703 119.953 126.652 119.903Z" fill="#2B2B2B"/>
<path d="M121.384 104.048C123.684 105.992 126.039 107.786 128.442 109.572C130.897 108.753 133.352 107.935 135.807 107.167C134.068 105.992 130.846 103.945 127.828 102.054L121.384 104.048Z" fill="#2B2B2B"/>
<path d="M120.413 103.23C122.509 102.564 124.555 101.951 126.652 101.286C123.681 99.4959 121.078 98.0641 120.566 98.1667C120.173 98.3133 117.573 98.7647 115.707 99.1384C117.241 100.519 118.827 101.899 120.413 103.23Z" fill="#2B2B2B"/>
<path d="M136.727 116.526C135.09 117.089 129.261 119.033 127.981 119.442C128.953 120.107 134.786 123.994 134.835 124.147C138.159 123.125 141.535 122 144.45 120.976C143.479 120.516 137.136 116.782 136.727 116.526Z" fill="#2B2B2B"/>
<path d="M129.517 110.389C130.72 111.21 132.206 112.339 136.933 115.248C138.229 114.785 142.51 113.32 144.809 112.435C141.587 110.697 138.314 108.907 137.087 107.986C136.883 107.785 137.669 107.727 129.517 110.389Z" fill="#2B2B2B"/>
<path d="M105.785 78.2209C110.92 77.0201 110.063 67.9514 107.626 65.5882C107.559 65.5243 107.473 65.4837 107.382 65.4726C107.29 65.4614 107.196 65.4802 107.116 65.5261C107.036 65.5721 106.972 65.6428 106.935 65.7277C106.898 65.8126 106.89 65.9072 106.911 65.9974C107.581 68.95 109.053 72.285 107.473 75.2539C106.976 76.1165 106.251 76.8247 105.376 77.3C104.967 77.6584 105.271 78.3743 105.785 78.2209Z" fill="#2B2B2B"/>
<path d="M105.07 73.5155C105.53 72.0838 105.888 68.4517 104.354 67.4291C104.285 67.3869 104.205 67.3646 104.125 67.3647C104.044 67.3648 103.964 67.3873 103.896 67.4297C103.827 67.4721 103.771 67.5327 103.734 67.6048C103.698 67.6769 103.682 67.7578 103.689 67.8383C103.507 69.3717 104.863 69.8192 104.098 73.2596C103.842 73.873 104.814 74.125 105.07 73.5155Z" fill="#2B2B2B"/>
<path d="M101.234 73.4638C101.458 72.2946 101.388 68.974 100.313 68.7593C100.197 68.7295 100.075 68.7382 99.9641 68.7842C99.8534 68.8302 99.7608 68.9109 99.7 69.0142C99.1902 69.8643 100.436 71.0172 100.16 73.3622C100.108 73.6181 100.416 73.873 100.62 73.873C100.753 73.8806 100.885 73.8447 100.996 73.7709C101.106 73.6971 101.19 73.5893 101.234 73.4638Z" fill="#2B2B2B"/>
<path d="M98.6765 75.1006C98.9324 73.5673 98.9343 71.112 96.7848 71.0603C96.6882 71.0525 96.5911 71.0685 96.5021 71.1069C96.4131 71.1453 96.3349 71.205 96.2743 71.2806C96.2136 71.3563 96.1725 71.4456 96.1544 71.5409C96.1363 71.6361 96.1418 71.7343 96.1705 71.8269C96.3325 72.2841 96.7886 72.331 97.1422 72.5428C97.9702 73.0383 97.7048 74.1279 97.6022 74.9463C97.5083 75.4408 98.5625 75.7925 98.6765 75.1006Z" fill="#2B2B2B"/>
<path d="M82.2593 52.9046C82.2593 52.138 81.301 50.8442 80.265 50.9611C78.9857 51.1049 78.9531 52.9995 79.3441 53.9272C79.6661 54.6939 80.6742 55.8707 81.5952 55.3081C81.8896 54.9896 82.1035 54.6052 82.2191 54.187C82.3346 53.7689 82.3484 53.3292 82.2593 52.9046Z" fill="#2B2B2B"/>
<path d="M77.4524 49.1202C80.8554 47.7584 82.9149 48.5021 83.0778 47.33C83.3883 45.1373 77.8069 47.4326 77.0403 48.0459C76.9197 48.1155 76.8278 48.2257 76.7809 48.3569C76.7341 48.488 76.7353 48.6315 76.7844 48.7618C76.8312 48.8939 76.9256 49.0038 77.0491 49.0701C77.1726 49.1363 77.3164 49.1542 77.4524 49.1202Z" fill="#2B2B2B"/>
<path d="M82.8736 69.8326C84.6535 70.0863 86.4604 70.0863 88.2403 69.8326C88.4028 69.7806 88.5445 69.6783 88.6451 69.5405C88.7457 69.4027 88.7999 69.2365 88.7999 69.0659C88.7999 68.8953 88.7457 68.7292 88.6451 68.5914C88.5445 68.4536 88.4028 68.3513 88.2403 68.2993C86.4379 67.9861 84.5844 68.1628 82.8736 68.811C82.4098 69.0075 82.3101 69.6821 82.8736 69.8326Z" fill="#2B2B2B"/>
<path d="M68.9624 57.7634C68.0628 57.9147 67.2263 58.3238 66.5545 58.9411C65.8828 59.5584 65.4046 60.3574 65.178 61.2412C64.4909 64.4037 66.834 67.5499 71.3659 66.6078C72.1221 66.4647 72.861 66.2418 73.5701 65.9427C73.7384 65.8402 73.8629 65.6791 73.9195 65.4903C73.9761 65.3015 73.9609 65.0984 73.8768 64.9202C73.7942 64.7419 73.6518 64.5983 73.4742 64.5142C73.2966 64.4302 73.0952 64.4111 72.905 64.4602C71.2241 64.8483 68.8695 65.8872 67.3822 64.3069C67.0695 63.9379 66.8451 63.5026 66.726 63.0339C66.6068 62.5651 66.5962 62.0755 66.6948 61.602C66.7934 61.1286 66.9986 60.6838 67.2949 60.3016C67.5912 59.9194 67.9708 59.6098 68.4047 59.3964C69.0113 59.0274 69.7857 59.1414 70.399 58.8338C71.0507 58.5741 70.4929 57.6359 68.9624 57.7634Z" fill="#2B2B2B"/>
<path d="M102.154 75.7657C97.9683 76.1988 98.7887 76.8908 91.7248 75.9248C95.1202 72.723 91.3577 64.487 91.1076 61.8545C91.1076 61.7012 92.9994 61.3428 93.2045 61.1386C94.3803 60.2177 93.1978 57.7663 92.7952 56.7399C91.2194 52.7561 89.3207 48.9077 87.1181 45.2332C86.9053 44.8795 86.246 45.1316 86.4022 45.5398C86.8545 46.7195 92.2816 59.6992 91.926 59.8085C89.465 60.5751 88.7635 60.0001 87.7832 60.6269C87.7004 60.6743 87.6301 60.7407 87.578 60.8206C87.5259 60.9006 87.4936 60.9917 87.4835 61.0865C87.4735 61.1814 87.4862 61.2773 87.5204 61.3663C87.5547 61.4553 87.6096 61.535 87.6806 61.5986C88.0427 61.8254 88.446 61.9783 88.8674 62.0485C89.2887 62.1187 89.7199 62.1049 90.1359 62.0078C90.1405 62.8017 90.2435 63.592 90.4425 64.3605C87.3511 63.6551 84.1128 63.9969 81.2368 65.3323C78.6809 66.512 76.4087 69.2873 78.5774 71.9812C79.945 73.6794 82.2105 74.1509 84.3054 74.2812C86.4597 74.4163 90.4167 74.0819 91.1095 73.6679C90.9453 74.4243 90.5862 75.1247 90.0678 75.6995C85.4602 75.1006 81.0212 74.8466 79.7044 78.5266C79.6498 78.679 75.7149 88.1924 75.6641 88.6016C72.2083 85.8703 68.3625 85.2858 64.0012 86.2C59.1294 87.3324 54.8497 90.2288 51.9875 94.3305C51.6875 94.7445 52.345 95.0972 52.6526 94.6889C57.703 87.9806 68.7737 84.039 75.5136 90.546C78.7921 93.7085 80.2909 98.1121 80.9349 102.514C81.9785 109.646 81.668 119.314 81.0375 126.5C80.7768 129.471 80.3206 132.431 80.2708 135.399C80.2765 135.521 80.3244 135.637 80.4061 135.727C80.4879 135.818 80.5985 135.877 80.7191 135.895C80.8397 135.913 80.9629 135.889 81.0676 135.827C81.1723 135.764 81.2521 135.667 81.2933 135.552C83.9134 126.927 83.8502 111.255 82.6743 102.462C81.5118 93.766 76.7422 89.5245 76.6905 89.4718C77.0737 88.9698 77.352 88.3959 77.5089 87.7841C78.3867 85.371 80.2765 80.8333 80.8333 78.885C83.3346 75.23 90.017 77.3757 95.3042 77.6066C100.532 77.8357 102.311 76.4892 103.129 76.84C105.855 77.5836 97.9952 80.0513 94.9975 80.8285C94.6908 80.9311 94.7407 81.485 95.1 81.4428C97.8372 81.131 100.501 80.3531 102.976 79.1428C105.877 78.103 104.634 75.5088 102.154 75.7657ZM84.5612 72.2361C83.4364 72.2376 82.3229 72.0117 81.2876 71.572C80.5209 71.204 79.6517 70.4977 79.6517 69.5768C79.6517 67.9476 82.542 66.5963 84.1012 66.1507C86.2702 65.6743 88.4788 65.4003 90.6984 65.3323C91.3242 67.9936 91.3117 68.2322 91.3117 71.8787C89.948 71.4244 89.5542 72.4594 84.5612 72.2361Z" fill="#2B2B2B"/>
<path d="M160.202 79.6009C157.04 73.9822 150.321 72.3942 144.501 74.538C139.23 76.4806 136.978 79.9708 137.904 85.7898C138.051 86.7117 138.415 87.7841 138.568 88.7051C134.658 91.7775 133.352 90.962 133.352 91.5178C133.256 91.6312 133.187 91.7657 133.153 91.9105C133.118 92.0552 133.119 92.2061 133.154 92.3507C133.189 92.4954 133.257 92.6297 133.354 92.7427C133.451 92.8558 133.573 92.9444 133.71 93.0013C135.235 93.5801 136.839 93.9249 138.467 94.0238C139.693 94.089 140.819 93.8187 141.893 94.4838C142.704 95.2606 143.637 95.8998 144.654 96.3765C148.117 98.1073 152.417 98.6823 156.11 96.8365C161.865 93.9625 163.43 85.3375 160.202 79.6009ZM153.042 89.4209C153.546 90.0352 153.865 90.7799 153.963 91.5686C153.98 91.845 153.941 92.122 153.85 92.3834C153.758 92.6448 153.615 92.8852 153.43 93.0905C153.244 93.2959 153.019 93.462 152.768 93.5792C152.517 93.6964 152.245 93.7622 151.968 93.7727C150.175 93.7727 149.573 92.2394 147.211 87.7352C145.865 88.4074 144.482 89.005 143.069 89.5254C142.776 89.6009 142.466 89.5687 142.195 89.4345C141.923 89.3004 141.709 89.0732 141.592 88.7944C141.474 88.5157 141.46 88.2039 141.553 87.9159C141.646 87.6279 141.839 87.3829 142.098 87.2254C143.278 86.3424 144.528 85.5556 145.835 84.8727C145.673 84.3878 143.745 80.6742 143.84 79.3498C143.841 79.1646 143.891 78.983 143.984 78.8228C144.077 78.6626 144.21 78.5295 144.37 78.4365C144.53 78.3435 144.712 78.2938 144.897 78.2925C145.082 78.2912 145.264 78.3382 145.426 78.4289C146.725 79.9092 147.937 81.463 149.057 83.0825C154.27 80.3388 154.202 79.9957 155.142 80.0159C155.429 80.0186 155.71 80.0957 155.958 80.2394C156.206 80.3832 156.412 80.5887 156.557 80.836C156.702 81.0834 156.78 81.364 156.784 81.6506C156.788 81.9371 156.718 82.2199 156.58 82.4711C156.189 83.0325 155.635 83.4609 154.994 83.6987C154.487 83.9632 151.721 85.4372 150.8 85.8464C151.61 87.119 152.335 88.2901 153.042 89.4209Z" fill="#E56464"/>
<path d="M159.231 67.1225C159.394 67.1225 159.55 67.0578 159.665 66.9427C159.78 66.8276 159.845 66.6714 159.845 66.5086C159.845 66.3459 159.78 66.1897 159.665 66.0746C159.55 65.9595 159.394 65.8948 159.231 65.8948C159.068 65.8948 158.912 65.9595 158.797 66.0746C158.682 66.1897 158.617 66.3459 158.617 66.5086C158.617 66.6714 158.682 66.8276 158.797 66.9427C158.912 67.0578 159.068 67.1225 159.231 67.1225Z" fill="#2B2B2B"/>
<path d="M124.15 97.5016C125.431 98.2683 133.205 102.815 135.862 104.306C140.324 106.806 155.826 115.295 160.666 116.989C160.736 117.035 160.815 117.066 160.897 117.08C160.979 117.095 161.064 117.092 161.145 117.073C161.226 117.054 161.303 117.019 161.37 116.969C161.437 116.919 161.493 116.856 161.536 116.784C166.372 106.544 171.909 96.65 178.106 87.1717C179.299 85.566 180.168 83.7431 180.663 81.8051C180.851 80.9642 180.829 80.0897 180.597 79.2598C180.365 78.4298 179.931 77.6702 179.334 77.0489C177.946 75.6612 176.92 75.3421 161.638 69.4282C159.637 68.6548 140.736 60.945 136.22 61.8574C134.381 62.2302 133.499 64.1574 132.64 65.6418C129.117 71.7483 124.351 85.4228 120.565 94.8451C120.39 95.3722 123.863 97.331 124.15 97.5016ZM129.009 76.3282C130.495 72.3737 132.326 68.5576 134.481 64.924C135.984 62.5608 136.726 62.8569 139.646 63.4405C148.386 65.1895 175.576 76.1979 176.112 76.4317C180.558 78.3733 180.252 81.2473 177.749 85.3816C174.586 90.6026 174.818 89.4219 167.213 103.18C164.954 107.266 162.709 111.311 160.666 115.505C155.252 112.376 159.414 115.511 125.326 96.8375C124.082 96.0612 122.783 95.3774 121.439 94.7914C123.155 91.352 122.716 91.6462 129.009 76.3282Z" fill="#2B2B2B"/>
<path d="M187.257 74.125C182.466 70.9961 144.152 57.6033 138.568 56.2253C137.455 55.8748 136.269 55.8226 135.13 56.0738C133.99 56.325 132.936 56.871 132.074 57.657C130.595 59.2574 129.448 61.1348 128.698 63.1808C124.445 72.7805 120.635 82.5114 117.241 92.6898C116.832 92.7924 114.634 93.3549 114.429 93.4565C114.122 93.6098 114.378 94.6314 114.685 94.5816C115.655 94.4244 117.905 94.5298 118.366 93.2006C121.321 84.7069 124.404 76.2535 127.931 67.9869C130.195 62.6729 131.468 58.8971 134.221 57.6053C136.686 56.4485 139.642 57.8602 141.995 58.6278C144.655 59.496 147.317 60.3585 149.973 61.2364C165.389 66.3251 182.513 73.0814 185.007 74.2774C188.042 76.2669 184.528 83.464 182.756 86.6543C177.817 95.5275 163.271 117.791 163.271 118.056C162.768 118.056 126.86 132.201 121.999 131.664C118.688 131.112 110.648 124.752 107.985 122.714C103.322 119.146 98.6526 115.545 94.1254 111.821C93.7613 111.521 93.2045 112.025 93.6137 112.332C100.77 118.492 107.144 124.109 112.997 128.289C112.894 129.363 113.15 132.739 113.201 133.404C104.271 126.83 95.3923 118.815 94.688 118.725C93.9836 118.635 93.3578 119.543 93.9711 120.055C94.0737 120.157 94.0229 120.055 93.9711 120.003C95.8872 121.835 97.9027 123.559 100.009 125.169C103.993 128.447 107.996 131.652 112.13 134.733C116.868 138.265 119.759 140.698 125.477 139.029C140.112 134.76 150.03 131.667 164.602 125.325C164.821 125.256 165.006 125.107 165.119 124.908C165.233 124.709 165.268 124.474 165.216 124.251C164.868 122.561 164.5 120.824 164.091 119.136C165.603 120.044 167.35 120.587 168.596 119.341C169.181 118.755 179.171 102.391 180.102 100.827C183.12 95.7632 185.928 90.6409 188.848 85.5349C191.527 80.84 192.541 77.5798 187.257 74.125ZM114.582 129.411C114.976 131.775 115.438 134.906 115.503 135.037C115.145 134.781 114.736 134.474 114.378 134.218C114.326 133.298 113.815 129.105 113.764 128.852C114.019 129.057 114.326 129.206 114.582 129.411ZM116.731 135.906C116.731 135.804 115.554 130.127 115.554 130.025C116.015 130.332 117.906 131.558 118.418 131.815C118.418 132.224 119.185 137.133 119.237 137.287C118.344 136.941 117.501 136.474 116.731 135.906ZM120.771 137.748C120.771 137.645 119.747 133.196 119.594 132.429C120.337 132.841 121.154 133.102 121.999 133.196C121.999 134.014 122.356 137.645 122.407 137.849C121.86 137.873 121.311 137.836 120.771 137.748Z" fill="#2B2B2B"/>
<path d="M120.822 108.855C120.576 108.271 120.23 107.734 119.799 107.27C116.359 102.766 115.199 97.0043 113.666 94.9448C112.093 92.8365 109.425 92.8671 107.068 93.3588C102.268 94.3833 97.5796 95.8752 93.0703 97.8131C93.4728 91.9673 94.0286 86.8105 93.9241 81.647C93.9749 81.4428 93.4689 81.3413 93.4124 81.647C92.1723 88.3697 91.7037 96.2606 90.753 108.289C89.2111 127.815 89.1239 142.796 81.7006 152.937C76.8936 159.506 69.1119 162.556 63.6475 161.734C55.9933 160.584 52.2299 151.064 50.0392 143.629C49.973 143.411 49.8245 143.228 49.6252 143.118C49.426 143.007 49.1916 142.979 48.9719 143.039C48.7522 143.099 48.5645 143.242 48.4487 143.438C48.3329 143.634 48.298 143.868 48.3516 144.089C50.2452 150.716 53.6761 159.496 59.9608 162.399C66.7132 165.516 75.0066 162.096 80.0609 157.335C87.9854 149.877 89.9691 137.998 90.9025 127.161C91.2811 122.772 92.5806 104.832 93.03 98.3392C95.0253 97.6837 101.509 95.7824 105.888 94.7876C108.138 94.2759 111.103 93.6118 112.692 95.8102C113.849 97.4125 114.841 101.973 117.397 106.294C118.004 107.321 118.834 108.954 120.005 109.465C120.099 109.521 120.207 109.547 120.316 109.541C120.425 109.535 120.529 109.497 120.616 109.431C120.703 109.366 120.769 109.277 120.806 109.174C120.843 109.072 120.848 108.961 120.822 108.855Z" fill="#2B2B2B"/>
<path d="M112.178 102.258C112.229 102.155 112.281 102.104 112.332 102.002C112.897 100.588 111.51 99.0886 109.212 100.008C107.351 100.912 105.371 101.548 103.331 101.899C102.72 101.931 102.117 102.051 101.541 102.258C101.231 102.405 101.338 102.866 101.643 102.974C102.75 103.183 103.893 103.113 104.967 102.77C106.075 102.499 107.153 102.122 108.189 101.644C108.906 101.337 110.828 99.9664 111.412 101.184C111.856 102.112 109.263 103.332 108.701 103.741C105.718 105.679 104.22 106.911 102.359 106.911C100.059 106.911 98.1657 105.122 96.3756 103.895C96.1197 103.69 95.8638 104.099 96.0679 104.304C97.3496 105.965 99.121 107.182 101.132 107.782C103.383 108.291 105.278 107.225 107.064 106.042C108.715 105.049 110.303 103.956 111.821 102.77C112.27 103.914 112.891 104.983 113.662 105.94C113.28 106.494 112.771 106.95 112.178 107.27C111.357 107.684 110.432 107.844 109.519 107.73C109.161 107.685 109.11 108.242 109.417 108.344C110.21 108.59 111.056 108.61 111.86 108.402C112.664 108.195 113.394 107.767 113.969 107.167C114.129 107.038 114.266 106.883 114.375 106.708C115.12 107.549 115.942 108.319 116.829 109.008C117.102 109.282 117.467 109.446 117.853 109.469C117.922 109.462 117.988 109.439 118.046 109.401C118.104 109.364 118.153 109.313 118.188 109.253C118.222 109.193 118.243 109.126 118.247 109.057C118.251 108.988 118.238 108.918 118.21 108.855C117.563 107.946 115.776 107.654 112.178 102.258Z" fill="#2B2B2B"/>
<path d="M45.8456 125.324C45.5389 125.17 41.8206 122.592 40.936 122C40.8765 121.967 40.824 121.923 40.7818 121.87C40.7396 121.817 40.7085 121.756 40.6904 121.691C40.6723 121.625 40.6675 121.557 40.6763 121.49C40.6851 121.423 40.7073 121.358 40.7417 121.3C40.776 121.241 40.8218 121.19 40.8763 121.15C40.9307 121.11 40.9927 121.081 41.0586 121.065C41.1245 121.049 41.1929 121.046 41.2598 121.057C41.3266 121.069 41.3906 121.093 41.4478 121.129C42.5527 121.654 45.7191 123.611 45.8456 123.738C45.8456 121.897 45.8925 120.055 45.9989 118.266C45.9956 118.183 46.0091 118.101 46.0385 118.023C46.0678 117.946 46.1125 117.875 46.1698 117.816C46.2272 117.756 46.2959 117.709 46.372 117.676C46.4481 117.644 46.53 117.627 46.6127 117.627C46.6954 117.627 46.7773 117.644 46.8534 117.676C46.9295 117.709 46.9982 117.756 47.0556 117.816C47.1129 117.875 47.1576 117.946 47.187 118.023C47.2163 118.101 47.2298 118.183 47.2265 118.266C47.3798 126.146 47.6357 134.069 49.5265 141.745C58.9488 138.804 77.3364 128.922 81.0001 126.839C81.6633 119.645 81.9757 109.685 80.9282 102.519C80.2842 98.1169 78.7854 93.7162 75.5069 90.5508C68.767 84.0438 57.6963 87.9844 52.6459 94.6937C52.3383 95.102 51.6809 94.7493 51.9808 94.3353C57.7596 86.362 66.8522 84.3207 72.6453 86.7942C69.1829 79.9603 59.3763 73.4321 53.977 72.9012C53.892 72.893 53.8061 72.9028 53.7252 72.93C53.6442 72.9573 53.5699 73.0014 53.5072 73.0594C53.4445 73.1174 53.3947 73.1881 53.3612 73.2667C53.3278 73.3453 53.3113 73.4301 53.3129 73.5155C53.3129 73.9592 52.0939 76.5898 51.0627 81.1822C53.8854 81.6525 56.6246 82.5312 59.1942 83.7908C59.9788 84.0759 60.6688 84.5732 61.1875 85.2273C61.2385 85.3119 61.2626 85.4101 61.2565 85.5087C61.2504 85.6073 61.2144 85.7017 61.1534 85.7794C61.0923 85.8571 61.0091 85.9144 60.9147 85.9436C60.8203 85.9729 60.7193 85.9727 60.625 85.9432C60.0854 85.8176 54.3958 82.7653 49.7824 82.1587C41.2925 82.8746 33.4217 87.7372 26.308 96.6832C19.9198 104.716 14.9537 118.266 13.5219 126.96L8.97177 154.625C8.43318 156.778 24.6932 166.125 54.1946 157.316C48.2749 149.089 45.928 135.424 45.8456 125.324Z" fill="#00A046"/>
<path d="M120.003 104.504C119.452 104.655 118.853 104.853 118.3 105.005C118.751 105.79 119.252 106.545 119.799 107.266C120.233 107.835 121.194 108.874 120.711 109.357C120.733 109.406 120.745 109.459 120.746 109.512C120.748 109.566 120.739 109.62 120.719 109.67C120.582 109.945 119.143 110.27 117.708 109.456C116.874 109.351 114.938 107.32 114.378 106.704C113.599 107.655 112.509 108.3 111.301 108.524C112.136 109.064 116.554 111.942 118.112 112.947C119.237 112.589 125.22 110.647 127.061 110.032C126.507 109.616 123.998 107.897 120.003 104.504Z" fill="#2B2B2B"/>
<path d="M101.132 107.782C99.6829 107.399 98.3607 106.64 97.2985 105.583C97.1348 105.584 96.9749 105.633 96.8387 105.724C96.7025 105.815 96.5958 105.943 96.5318 106.094C96.4293 106.298 96.1734 106.912 97.9128 108.6C97.9128 108.6 98.3728 108.958 99.1912 109.572C101.851 108.702 104.558 107.883 107.272 107.117C106.994 106.909 106.717 106.677 106.455 106.437C104.844 107.445 103.128 108.233 101.132 107.782Z" fill="#2B2B2B"/>
<path d="M117.767 104.043C118.223 103.893 118.678 103.79 119.083 103.639C118.158 102.835 117.266 102 116.406 101.133C116.805 102.081 117.25 103.067 117.767 104.043Z" fill="#2B2B2B"/>
</svg>
